<svg xmlns="http://www.w3.org/2000/svg" xmlns:xlink="http://www.w3.org/1999/xlink" width="256" height="428" fill="none"><style>.B{opacity:.1}.C{opacity:.2}.D{opacity:.9}.E{opacity:.08}.F{fill:#233e98}.G{opacity:.4}.H{opacity:.02}.I{opacity:.37}.J{opacity:.62}.K{stroke-width:.322}.L{stroke-linejoin:round}.M{fill:#d8eaf3}</style><path d="M2.822 123.784l10.366 6.044 37.79 21.83v.25l11.065 6.47.874-.05-.2 177.616-60.12-35.118.025-47.608-.674-.4.175-130.084c.125.5.35.85.7 1.05z" fill="url(#A)" class="J"/><g class="G"><path d="M71.61 177.736c-4.346 0-8.467-1-11.615-2.798l-43.56-25.127c-3.647-2.098-5.745-5.22-5.745-8.568s2.073-6.47 5.72-8.592l50.855-29.5c3.147-1.823 7.27-2.822 11.615-2.822s8.467 1 11.615 2.822l43.46 25.228c3.647 2.123 5.72 5.245 5.72 8.592s-2.098 6.47-5.745 8.592l-50.704 29.35c-3.122 1.824-7.243 2.823-11.615 2.823zm7.27-70.962c-3.197 0-6.245.724-8.392 1.948l-50.855 29.5c-1.573.924-2.523 2.048-2.523 2.997 0 .974.95 2.098 2.523 2.998l43.56 25.127c2.148 1.25 5.22 1.95 8.392 1.95 3.197 0 6.27-.725 8.442-1.974l50.705-29.35c1.574-.924 2.523-2.048 2.523-3.022s-.95-2.098-2.523-3.022l-43.46-25.228c-2.148-1.2-5.195-1.923-8.392-1.923z" fill="url(#B)" class="D"/><path opacity=".56" d="M71.61 196.82c-4.346 0-8.467-1-11.615-2.798l-43.56-25.127c-3.647-2.098-5.745-5.22-5.745-8.568s2.073-6.47 5.72-8.592l50.855-29.5c3.147-1.823 7.27-2.822 11.615-2.822s8.467 1 11.615 2.822l43.46 25.228c3.647 2.123 5.72 5.245 5.72 8.592s-2.098 6.47-5.745 8.593l-50.704 29.348c-3.122 1.824-7.243 2.823-11.615 2.823zm7.27-70.962c-3.197 0-6.245.725-8.392 1.948l-50.855 29.5c-1.573.924-2.523 2.048-2.523 2.997 0 .975.95 2.1 2.523 2.998l43.56 25.127c2.148 1.25 5.22 1.95 8.392 1.95 3.197 0 6.27-.725 8.442-1.974l50.705-29.348c1.574-.925 2.523-2.05 2.523-3.023s-.95-2.098-2.523-3.022l-43.46-25.228c-2.148-1.223-5.195-1.923-8.392-1.923z" fill="url(#C)"/></g><path opacity=".8" d="M131.608 120.262l-.2 145.645-68.513 39.84.25-225.024 67.315 37.592c.7.374 1.15 1.15 1.15 1.948z" fill="url(#D)"/><path d="M2.872 121.634l66.64-38.24c.525-.3 1.174-.3 1.698 0l58.623 34.27c.8.475 1.074 1.5.6 2.298-.15.25-.35.475-.624.6l-66.016 37.917a1.72 1.72 0 0 1-1.699 0l-59.222-34.62c-.624-.35-.824-1.15-.475-1.774.125-.175.3-.35.475-.45z" fill="#2552a3"/><path d="M131.606 119.534l-.2 146.97-68.664 39.44.2-147.42 68.664-39z" fill="url(#E)" class="J"/><path opacity=".834" d="M9.442 124.558L63.32 155.98l61.47-35.243-54.376-31.572-60.97 35.393z" fill="#1a4696"/><path d="M1 122.585L70.438 82.72 129.9 117.5c.8.474 1.074 1.5.6 2.298-.15.25-.35.474-.624.6L63.02 158.803 1 122.585z" stroke="url(#F)" class="K L"/><path d="M2.172 111.944h1.6v1.2h-1.6v-1.2z" fill="#36459b"/><path d="M71.336 73.028l58.498 34.095a2.242 2.242 0 0 1 .8 3.072c-.2.325-.474.624-.8.8L64.992 148.66a3.97 3.97 0 0 1-3.946 0L3.297 115.24a2.25 2.25 0 0 1-.824-3.072c.2-.35.475-.624.824-.824l65.79-38.316c.7-.4 1.574-.4 2.248 0z" fill="url(#G)" class="D"/><path d="M131.557 107.872h-.8v1.2h.8v-1.2z" class="M"/><path d="M71.337 71.83l58.498 34.094a2.242 2.242 0 0 1 .8 3.072c-.2.325-.474.625-.8.8l-64.543 37.49c-1.4.8-3.122.8-4.496 0l-57.5-33.27a2.25 2.25 0 0 1-.824-3.072 2.18 2.18 0 0 1 .824-.825l65.79-38.3c.7-.4 1.574-.4 2.248 0z" fill="url(#H)" class="D"/><path opacity=".36" d="M86.622 102.577H40.19l-14.987 6.145L44.56 121.66l22.48 10.416 36.642-19.758-17.06-9.74z" fill="url(#I)"/><path d="M93.668 95.908L80.98 88.6a3.91 3.91 0 0 0-3.847 0l-33.345 19.358-2.573-.6v2.198a1.28 1.28 0 0 0 .65 1.099l14.137 8.193c1.2.674 2.648.674 3.822 0l35.27-20.482c.425-.25.65-.674.65-1.1v.65-2.823l-2.073.824z" fill="url(#J)"/><path d="M41.866 106.25l35.27-20.482a3.91 3.91 0 0 1 3.847 0l14.112 8.193c.85.5.85 1.723 0 2.198l-35.27 20.481a3.865 3.865 0 0 1-3.822 0l-14.137-8.193c-.85-.475-.85-1.698 0-2.198z" fill="#fff"/><path d="M45.6 104.95l30.648-17.784 16.485 9.542L62.12 114.49l-16.5-9.54z" fill="#223e7d"/><path d="M84.976 89.813l3.122 1.798c.175.1.175.325 0 .425-.15.1-.325.1-.5 0l-3.072-1.798c-.175-.1-.175-.325 0-.425.1-.075.275-.075.45 0zm2.722 11.2l2.073-1.2c.175-.125.425.025.425.25a.82.82 0 0 1-.375.674l-2.073 1.2c-.175.125-.425-.025-.425-.25-.025-.325.125-.575.375-.675zM51.83 112.418c1.2 0 2.173-.604 2.173-1.35s-.973-1.35-2.173-1.35-2.173.604-2.173 1.35.973 1.35 2.173 1.35z" fill="#89acda"/><path d="M105.106 86.492l-56.95-32.996c-1.174-.674-2.123-.125-2.123 1.224v12.74c0 1.35.95 3.022 2.123 3.722L68.1 82.795l-.025.025 3.922 2.298 4.546 13.138 4.546-7.868 7.044 4.02v-.05l16.984 9.74c1.174.674 2.15.125 2.15-1.25v-12.71c-.025-1.3-.975-2.972-2.15-3.647z" fill="#6dbd45" class="D"/><path d="M64.343 69.057c.125.05.225.225.225.35v4.646c0 .125-.1.175-.225.125L61.42 72.48c-.125-.05-.225-.225-.225-.35v-4.67c0-.125.1-.175.225-.125l2.922 1.724zm4.217 2.448c.125.05.225.225.225.35V76.5c0 .125-.1.175-.225.125l-2.922-1.674c-.125-.05-.225-.225-.225-.35v-4.67c0-.125.1-.175.225-.125l2.922 1.698zm4.173 2.422c.125.05.225.225.225.35v4.646c0 .125-.1.175-.225.125l-2.922-1.724c-.125-.05-.225-.225-.225-.35v-4.67c0-.125.1-.175.225-.125l2.922 1.75z" class="G" fill="#fff"/><path d="M54.753 65.56c0 .724-.225 1.1-.674 1.05l.9 2.173-.95-.55-.774-1.923-.55-.325v1.474l-.774-.45v-4.62l1.3.774c.55.325.924.674 1.15 1.024.275.35.375.824.375 1.374zm-.95 0c.1-.075.15-.225.15-.474a1.32 1.32 0 0 0-.15-.6c-.1-.15-.3-.3-.5-.45l-.574-.35v1.374l.574.325c.225.175.425.225.5.175zm3.297.725c-.075.025-.125.125-.125.25a.8.8 0 0 0 .125.425c.1.125.3.35.65.65s.575.6.774.924a2.1 2.1 0 0 1 .3 1.124c0 .425-.125.674-.35.8s-.55.075-.924-.15c-.55-.325-1.05-.874-1.5-1.674l.45-.474c.375.65.724 1.1 1.05 1.25.125.1.25.1.35.075s.125-.125.125-.25-.025-.3-.125-.425-.25-.325-.5-.55c-.425-.35-.7-.7-.9-1.024a2.1 2.1 0 0 1-.3-1.124c0-.425.125-.7.35-.8s.55-.075.9.15c.225.125.475.325.7.575s.45.5.6.8l-.375.55c-.3-.475-.6-.8-.924-1-.175-.125-.275-.125-.35-.1zm19.633 9.74l.7.4-2.073 4.896-.724-.4 2.098-4.896zm4.894 5.394l-.924 1.973-.45-.25-.924-3.072v2.922l-.774-.45V77.9l1.074.6.874 3.072.9-1.998 1.05.6v4.646l-.75-.45-.075-2.947zm5.547 5.32c-.35.25-.8.225-1.3-.075s-.95-.774-1.3-1.45a4.33 4.33 0 0 1-.5-2.023c0-.673.2-1.15.5-1.4.35-.25.8-.225 1.3.075s.95.774 1.3 1.45.55 1.35.55 2.023c-.05.7-.2 1.124-.55 1.4zm-.3-1.873a2.87 2.87 0 0 0-.3-1.25c-.2-.426-.45-.7-.724-.874-.3-.15-.55-.15-.724 0-.2.2-.3.475-.3.9a2.68 2.68 0 0 0 .3 1.224c.2.375.45.7.724.874.3.15.55.15.724 0 .225-.15.3-.45.3-.874zm4.77.6l.774.45v4.646l-.774-.45-1.648-3.87v2.922l-.774-.45V84.07l.75.425 1.674 3.97v-2.997zM95.4 88.4v3.747l-.774-.45V87.94l-1-.575v-.9l2.748 1.623v.874l-.974-.574zm4.448 1.664l.75.45v4.646l-.75-.45v-1.823l-1.374-.8V93.9l-.774-.45v-4.646l.774.45v1.948l1.374.8v-1.948z" fill="#fff"/><path d="M82.043 143.41l13.938 8.117 50.804 29.3v.325l16.036 9.342-.275 236.364-80.778-47.108.025-62.72-.924-.525.225-174.52c.175.65.5 1.124.95 1.424z" fill="url(#K)" class="J"/><g class="G"><use xlink:href="#AI" opacity=".5" fill="url(#L)"/><use xlink:href="#AJ" fill="url(#M)" class="G"/></g><path opacity=".016" d="M54.494 214.12c-.574-1.374-2.048-1.5-3.322-.25a6.47 6.47 0 0 0-.375.425l-28.8 31.67v8.068l31.397-35.393c1.15-1.324 1.624-3.247 1.1-4.52z" fill="url(#N)"/><g class="B"><use xlink:href="#AK" fill="url(#O)" class="B"/><use xlink:href="#AL" fill="url(#P)" class="E"/><use xlink:href="#AM" fill="url(#Q)" class="B"/><use xlink:href="#AN" class="C F"/><use xlink:href="#AO" fill="url(#R)"/><use xlink:href="#AP" fill="url(#S)" class="E"/><use xlink:href="#AQ" fill="url(#T)"/><use xlink:href="#AR" class="C F"/><use xlink:href="#AS" fill="url(#U)"/><use xlink:href="#AT" fill="url(#V)" class="E"/><use xlink:href="#AU" fill="url(#W)"/><use xlink:href="#AR" y="54.976" class="C F"/></g><g class="H"><use xlink:href="#AV" fill="url(#X)" class="H"/><use xlink:href="#AT" y="54.401" fill="url(#Y)" class="E"/><use xlink:href="#AW" fill="url(#Z)" class="H"/><use xlink:href="#AX" class="C F"/></g><use xlink:href="#AY" opacity=".8" fill="url(#a)"/><use xlink:href="#AZ" opacity=".8" fill="url(#b)"/><use xlink:href="#Aa" stroke="url(#c)" class="K L"/><path opacity=".6" d="M255.013 138.314l-.2 130.01-61.945 35.268.2-130.034 61.945-35.243z" fill="url(#d)"/><path d="M173.713 75.52l80.303 46.584a2.247 2.247 0 0 1 .824 3.072c-.2.35-.474.624-.824.824l-89.145 51.554c-1.224.7-2.723.7-3.922 0L81.32 131.67a2.25 2.25 0 0 1-.824-3.072 2.17 2.17 0 0 1 .824-.824L171.5 75.52c.674-.4 1.523-.4 2.223 0z" fill="url(#e)" class="D"/><path d="M255.216 122.453h-1.074v1.624h1.074v-1.624z" class="M"/><path d="M173.712 73.896l80.303 46.583a2.247 2.247 0 0 1 .824 3.072 2.17 2.17 0 0 1-.824.825l-88.87 51.404c-1.398.8-3.097.8-4.496 0l-79.33-45.734a2.25 2.25 0 0 1-.824-3.073c.2-.35.475-.624.824-.824l90.17-52.253a2.21 2.21 0 0 1 2.223 0z" fill="url(#f)" class="D"/><g class="G"><use xlink:href="#AI" opacity=".5" fill="url(#g)"/><use xlink:href="#AJ" fill="url(#h)" class="G"/></g><g class="B"><use xlink:href="#AK" fill="url(#i)" class="B"/><use xlink:href="#AL" fill="url(#j)" class="E"/><use xlink:href="#AM" fill="url(#Q)" class="B"/><use xlink:href="#AN" class="C F"/><use xlink:href="#AO" fill="url(#k)"/><use xlink:href="#AP" fill="url(#l)" class="E"/><use xlink:href="#AQ" fill="url(#T)"/><use xlink:href="#AR" class="C F"/><use xlink:href="#AS" fill="url(#m)"/><use xlink:href="#AT" fill="url(#n)" class="E"/><use xlink:href="#AU" fill="url(#W)"/><use xlink:href="#AR" y="54.976" class="C F"/></g><g class="H"><use xlink:href="#AV" fill="url(#o)" class="H"/><use xlink:href="#AT" y="54.401" fill="url(#p)" class="E"/><use xlink:href="#AW" fill="url(#Z)" class="H"/><use xlink:href="#AX" class="C F"/></g><use xlink:href="#AY" opacity=".8" fill="url(#q)"/><path d="M82.634 140.68l89.92-51.53a1.67 1.67 0 0 1 1.674 0l79.953 46.634c.8.474 1.074 1.498.6 2.298-.15.25-.35.474-.625.6l-89.845 51.554c-.524.3-1.173.3-1.673 0l-80.004-46.658a1.677 1.677 0 0 1-.6-2.298c.125-.25.35-.45.6-.6z" fill="#2552a3"/><use xlink:href="#AZ" fill="url(#r)" class="J"/><path opacity=".834" d="M90.96 144.408l72.435 42.187 82.602-47.307-73.085-42.363-81.952 47.483z" fill="#1a4696"/><use xlink:href="#Aa" stroke="url(#s)" class="K L"/><path d="M80.12 127.873h2.15v1.624h-2.15v-1.624z" fill="#36459b"/><path d="M173.71 75.52l80.303 46.584a2.247 2.247 0 0 1 .824 3.072c-.2.35-.474.624-.824.824l-89.145 51.554c-1.224.7-2.723.7-3.922 0l-79.63-45.884a2.25 2.25 0 0 1-.824-3.072 2.17 2.17 0 0 1 .824-.824l90.17-52.254c.674-.4 1.523-.4 2.223 0z" fill="url(#t)" class="D"/><path d="M255.214 122.453h-1.074v1.624h1.074v-1.624z" class="M"/><path d="M173.71 73.896l80.303 46.583a2.247 2.247 0 0 1 .824 3.072 2.17 2.17 0 0 1-.824.825l-88.87 51.404c-1.398.8-3.097.8-4.496 0l-79.33-45.734a2.25 2.25 0 0 1-.824-3.073 2.18 2.18 0 0 1 .824-.824l90.17-52.253a2.21 2.21 0 0 1 2.223 0z" fill="url(#u)" class="D"/><path opacity=".788" d="M84.137 7.023l-2.872 12.79-39.14 12.664L84.137 7.023z" fill="#2b368a"/><path opacity=".902" d="M100.848 16.515l-10.815-6.12-47.907 22.08L84.138 7.023l-11.8-6.37c-1.973-1.15-3.422-.9-5.92 1.674l-27 31.772 60.12-13.263c3.997-1 5.595-1.848 1.3-4.32z" fill="url(#v)"/><path opacity=".263" d="M84.038 10.37c33.37-17.984 61.545-9.542 84.525 25.352m-52.68 5.57c10.815-6.47 21.606-4.12 32.42 7.044" stroke="#37baec" stroke-width=".549" stroke-linecap="round" stroke-dasharray="2.56 2.56"/><path d="M112.588 40.27l-2.123 9.392-28.9 9.292 31.023-18.683z" fill="url(#w)"/><path d="M125.725 47.787l-8.817-5.045-35.343 16.2 30.997-18.708-7.22-4.046c-1.448-.85-2.522-.65-4.37 1.224L79.566 60.15l45.185-9.192c2.972-.724 4.17-1.35.974-3.172z" fill="url(#x)" class="D"/><path d="M148.667 154.786H112l-12.613-7.244 66.116-37.64L197 127.96l-48.332 26.826z" fill="url(#y)" class="C"/><path d="M164.877 145.244l30.997-17.284-63.343-25.877-61.77 35.343 94.116 7.818z" fill="url(#z)" class="C"/><path d="M178.29 84.973c.974-.55 1.748-.1 1.748 1.024l-.125 30.248c0 1.1-.8 2.473-1.773 3.023l-44.785 25.477c-.974.55-1.75.1-1.75-1.024l.125-30.248c0-1.1.8-2.473 1.774-3.023l44.785-25.477z" fill="url(#AA)"/><path opacity=".3" d="M131.682 124.713l48.307-27.476.025-7.044-48.307 27.475-.025 7.044z" fill="url(#AB)"/><g class="I"><path d="M142.547 127.212l-7.044 4.022c-.15.075-.275.3-.275.474l-.025 2.373c0 .175.125.25.275.15l7.044-4.02c.15-.075.274-.3.274-.475l.025-2.373c0-.175-.1-.25-.274-.15z" fill="url(#AC)" class="I"/><path d="M151.54 127.537l-16.036 9.092c-.15.075-.275.3-.275.475l-.025 2.373c0 .174.125.25.275.15l16.036-9.09c.15-.075.274-.3.274-.475l.025-2.373c0-.175-.125-.25-.274-.15z" fill="url(#AD)" class="I"/><path d="M151.24 122.342l-7.07 4.02c-.15.075-.275.3-.275.475l-.025 2.373c0 .175.125.25.275.15l7.044-4.022c.15-.075.274-.3.274-.474l.025-2.373c.025-.175-.1-.25-.25-.15z" fill="url(#AE)" class="I"/><path d="M159.906 117.47l-7.044 4.022c-.15.075-.275.3-.275.474l-.025 2.373c0 .175.125.25.275.15l7.044-4.02c.15-.075.275-.3.275-.475l.025-2.373c0-.175-.125-.225-.275-.15z" fill="url(#AF)" class="I"/></g><g opacity=".6" fill="#fff"><path opacity=".433" d="M172.884 110.104c-1.648.95-2.997 3.222-2.997 5.17s1.35 2.673 2.997 1.723 2.997-3.297 2.997-5.17c0-1.973-1.348-2.673-2.997-1.723z"/><path opacity=".6" d="M169.287 112.726c-1.648.95-2.997 3.223-2.997 5.17 0 1.973 1.35 2.672 2.997 1.723s2.998-3.297 2.998-5.17c0-1.948-1.324-2.673-2.998-1.724z"/></g><path d="M193.75 107.328l-44.785 25.702c-.974.55-1.774 1.924-1.774 3.048l-.125 17.584c0 1.124.775 1.573 1.75 1.024L193.6 129.01c.974-.55 1.773-1.923 1.773-3.047l.125-17.585c0-1.15-.774-1.598-1.748-1.05z" fill="url(#AG)"/><path d="M156.73 137.526l1.75-1c.425-.25.75-.3.974-.15.225.124.35.424.35.9a2.57 2.57 0 0 1-.35 1.274c-.225.4-.55.724-.974.974l-.774.45v1.9l-.975.55v-4.896zm1.6 1.075c.375-.2.55-.475.55-.825 0-.175-.05-.274-.125-.324s-.225 0-.425.1l-.65.375v1.05l.65-.374zm5.12-.075l-.325-.825-1.623.95-.325 1.198-.974.55 1.7-5.87.75-.45 1.723 3.896-.924.55zm-1.623-1.05l1-.575-.5-1.25-.5 1.824zm6.543-6.694l-1.55 3.922v1.848l-.974.575v-1.874l-1.524-2.123 1.074-.624.924 1.424.95-2.498 1.1-.65zm5.47-3.147l.9-.524v4.87l-.7.4-1.673-1.8v2.773l-.9.525v-4.896l.7-.4 1.674 1.8v-2.748zm3.148 2.798c-.274-.05-.5-.2-.65-.5s-.225-.7-.225-1.2a4.63 4.63 0 0 1 .225-1.449 4.08 4.08 0 0 1 .65-1.223 3.24 3.24 0 0 1 .975-.875c.374-.225.7-.3.974-.25s.474.2.624.5.225.7.225 1.2-.075 1-.225 1.45c-.15.474-.35.874-.624 1.25s-.6.65-.974.874-.7.275-.975.225zm1.624-2c.15-.35.225-.774.225-1.273s-.075-.825-.225-1-.375-.174-.65-.025-.5.4-.65.75-.225.774-.225 1.274.075.85.225 1c.15.175.375.175.65.025s.474-.4.65-.75zm6.945-7.593l.924-.524-1.3 5.62-.774.45-.774-2.447-.775 3.347-.75.45-1.324-4.146 1-.55.75 2.648.8-3.547.674-.4.775 2.672.774-3.572z" fill="#fff"/><path fill="url(#AH)" d="M2 219h253v209H2z"/><defs><linearGradient id="A" x1="32" y1="188.5" x2="-65.17" y2="351.969" xlink:href="#Ab"><stop stop-color="#2f46bb"/><stop offset="0" stop-color="#2f46bb"/><stop offset="1" stop-color="#04093f" stop-opacity="0"/></linearGradient><linearGradient id="B" x1="139.721" y1="139.043" x2="10.685" y2="139.043" xlink:href="#Ab"><stop stop-color="#fff"/><stop offset="1" stop-color="#fff" stop-opacity="0"/></linearGradient><linearGradient id="C" x1="139.721" y1="158.121" x2="10.685" y2="158.121" xlink:href="#Ab"><stop stop-color="#fff"/><stop offset="1" stop-color="#fff" stop-opacity="0"/></linearGradient><linearGradient id="D" x1="97.288" y1="90.423" x2="97.288" y2="180.748" xlink:href="#Ab"><stop stop-color="#53c7e4"/><stop offset="1" stop-color="#fff" stop-opacity="0"/></linearGradient><linearGradient id="E" x1="100.09" y1="121.037" x2="120.279" y2="235.127" xlink:href="#Ab"><stop stop-color="#2f46bb"/><stop offset="0" stop-color="#2f46bb"/><stop offset="1" stop-color="#04093f" stop-opacity="0"/></linearGradient><linearGradient id="F" x1="22.764" y1="120.723" x2="108.945" y2="120.723" xlink:href="#Ab"><stop stop-color="#39c5f3" stop-opacity="0"/><stop offset="1" stop-color="#fff" stop-opacity=".8"/></linearGradient><linearGradient id="G" x1="16.247" y1="111.056" x2="105.231" y2="111.056" xlink:href="#Ab"><stop stop-color="#2b3f98"/><stop offset=".504" stop-color="#47a3da" stop-opacity=".9"/><stop offset="1" stop-color="#fff" stop-opacity=".9"/></linearGradient><linearGradient id="H" x1="-10.599" y1="108.5" x2="142.623" y2="115.615" xlink:href="#Ab"><stop stop-color="#2e4fa1"/><stop offset="1" stop-color="#39c5f3" stop-opacity=".9"/></linearGradient><linearGradient id="I" x1="23.259" y1="117.27" x2="60.103" y2="117.27" xlink:href="#Ab"><stop stop-color="#87d5f7" stop-opacity=".032"/><stop offset="1" stop-color="#244b9f" stop-opacity=".484"/></linearGradient><linearGradient id="J" x1="42.068" y1="100.912" x2="89.267" y2="116.077" xlink:href="#Ab"><stop stop-color="#e8ecf7"/><stop offset="1" stop-color="#cbd3eb"/></linearGradient><linearGradient id="K" x1="158" y1="184.5" x2="50.725" y2="349.362" xlink:href="#Ab"><stop stop-color="#2f46bb"/><stop offset="0" stop-color="#2f46bb"/><stop offset="1" stop-color="#04093f" stop-opacity="0"/></linearGradient><linearGradient id="L" x1="238.046" y1="158.956" x2="88.849" y2="158.956" xlink:href="#Ab"><stop stop-color="#fff"/><stop offset="1" stop-color="#fff" stop-opacity="0"/></linearGradient><linearGradient id="M" x1="238.049" y1="177.112" x2="88.852" y2="177.112" xlink:href="#Ab"><stop stop-color="#fff"/><stop offset="1" stop-color="#fff" stop-opacity="0"/></linearGradient><linearGradient id="N" x1="34.895" y1="235.503" x2="55.855" y2="220.104" xlink:href="#Ab"><stop stop-color="#2d6eb5" stop-opacity="0"/><stop offset=".999" stop-color="#2d6eb5"/></linearGradient><linearGradient id="O" x1="49.677" y1="280.976" x2="126.531" y2="280.976" xlink:href="#Ab"><stop stop-color="#a8d7f3"/><stop offset="1" stop-color="#fff" stop-opacity="0"/></linearGradient><linearGradient id="P" x1="34.895" y1="289.914" x2="55.855" y2="274.516" xlink:href="#Ab"><stop stop-color="#2d6eb5" stop-opacity="0"/><stop offset=".999" stop-color="#2d6eb5"/></linearGradient><linearGradient id="Q" x1="47.216" y1="268.847" x2="66.138" y2="273.119" xlink:href="#Ab"><stop stop-color="#fff"/><stop offset="1" stop-color="#39c5f3" stop-opacity="0"/></linearGradient><linearGradient id="R" x1="49.677" y1="253.492" x2="126.531" y2="253.492" xlink:href="#Ab"><stop stop-color="#a8d7f3"/><stop offset="1" stop-color="#fff" stop-opacity="0"/></linearGradient><linearGradient id="S" x1="34.895" y1="262.425" x2="55.855" y2="247.027" xlink:href="#Ab"><stop stop-color="#2d6eb5" stop-opacity="0"/><stop offset=".999" stop-color="#2d6eb5"/></linearGradient><linearGradient id="T" x1="47.216" y1="241.363" x2="66.138" y2="245.635" xlink:href="#Ab"><stop stop-color="#fff"/><stop offset="1" stop-color="#39c5f3" stop-opacity="0"/></linearGradient><linearGradient id="U" x1="49.677" y1="308.454" x2="126.531" y2="308.454" xlink:href="#Ab"><stop stop-color="#a8d7f3"/><stop offset="1" stop-color="#fff" stop-opacity="0"/></linearGradient><linearGradient id="V" x1="34.895" y1="317.409" x2="55.857" y2="302.004" xlink:href="#Ab"><stop stop-color="#2d6eb5" stop-opacity="0"/><stop offset=".999" stop-color="#2d6eb5"/></linearGradient><linearGradient id="W" x1="47.216" y1="296.333" x2="66.138" y2="300.606" xlink:href="#Ab"><stop stop-color="#fff"/><stop offset="1" stop-color="#39c5f3" stop-opacity="0"/></linearGradient><linearGradient id="X" x1="49.677" y1="362.873" x2="126.531" y2="362.873" xlink:href="#Ab"><stop stop-color="#a8d7f3"/><stop offset="1" stop-color="#fff" stop-opacity="0"/></linearGradient><linearGradient id="Y" x1="34.895" y1="317.411" x2="55.855" y2="302.013" xlink:href="#Ab"><stop stop-color="#2d6eb5" stop-opacity="0"/><stop offset=".999" stop-color="#2d6eb5"/></linearGradient><linearGradient id="Z" x1="47.216" y1="350.744" x2="66.138" y2="355.016" xlink:href="#Ab"><stop stop-color="#fff"/><stop offset="1" stop-color="#39c5f3" stop-opacity="0"/></linearGradient><linearGradient id="a" x1="208.994" y1="98.569" x2="208.994" y2="219.749" xlink:href="#Ab"><stop stop-color="#53c7e4"/><stop offset="1" stop-color="#fff" stop-opacity="0"/></linearGradient><linearGradient id="b" x1="214.42" y1="137.342" x2="182.102" y2="239.946" xlink:href="#Ab"><stop stop-color="#fff"/><stop offset="1" stop-color="#fff" stop-opacity="0"/></linearGradient><linearGradient id="c" x1="108.906" y1="139.262" x2="225.133" y2="139.262" xlink:href="#Ab"><stop stop-color="#39c5f3" stop-opacity="0"/><stop offset="1" stop-color="#fff" stop-opacity=".8"/></linearGradient><linearGradient id="d" x1="226.65" y1="139.608" x2="210.494" y2="208.499" xlink:href="#Ab"><stop stop-color="#fff"/><stop offset="1" stop-color="#fff" stop-opacity="0"/></linearGradient><linearGradient id="e" x1="99.355" y1="126.634" x2="222.645" y2="126.634" xlink:href="#Ab"><stop stop-color="#2b3f98"/><stop offset=".504" stop-color="#47a3da" stop-opacity=".9"/><stop offset=".98" stop-color="#fff" stop-opacity=".9"/></linearGradient><linearGradient id="f" x1="62.877" y1="123.322" x2="271.042" y2="133.017" xlink:href="#Ab"><stop stop-color="#2e4fa1"/><stop offset="1" stop-color="#39c5f3" stop-opacity=".9"/></linearGradient><linearGradient id="g" x1="238.036" y1="158.956" x2="88.84" y2="158.956" xlink:href="#Ab"><stop stop-color="#fff"/><stop offset="1" stop-color="#fff" stop-opacity="0"/></linearGradient><linearGradient id="h" x1="238.039" y1="177.112" x2="88.843" y2="177.112" xlink:href="#Ab"><stop stop-color="#fff"/><stop offset="1" stop-color="#fff" stop-opacity="0"/></linearGradient><linearGradient id="i" x1="49.675" y1="280.976" x2="126.529" y2="280.976" xlink:href="#Ab"><stop stop-color="#a8d7f3"/><stop offset="1" stop-color="#fff" stop-opacity="0"/></linearGradient><linearGradient id="j" x1="34.897" y1="289.914" x2="55.856" y2="274.516" xlink:href="#Ab"><stop stop-color="#2d6eb5" stop-opacity="0"/><stop offset=".999" stop-color="#2d6eb5"/></linearGradient><linearGradient id="k" x1="49.675" y1="253.492" x2="126.529" y2="253.492" xlink:href="#Ab"><stop stop-color="#a8d7f3"/><stop offset="1" stop-color="#fff" stop-opacity="0"/></linearGradient><linearGradient id="l" x1="34.897" y1="262.425" x2="55.856" y2="247.027" xlink:href="#Ab"><stop stop-color="#2d6eb5" stop-opacity="0"/><stop offset=".999" stop-color="#2d6eb5"/></linearGradient><linearGradient id="m" x1="49.675" y1="308.454" x2="126.529" y2="308.454" xlink:href="#Ab"><stop stop-color="#a8d7f3"/><stop offset="1" stop-color="#fff" stop-opacity="0"/></linearGradient><linearGradient id="n" x1="34.897" y1="317.409" x2="55.858" y2="302.004" xlink:href="#Ab"><stop stop-color="#2d6eb5" stop-opacity="0"/><stop offset=".999" stop-color="#2d6eb5"/></linearGradient><linearGradient id="o" x1="49.675" y1="362.873" x2="126.529" y2="362.873" xlink:href="#Ab"><stop stop-color="#a8d7f3"/><stop offset="1" stop-color="#fff" stop-opacity="0"/></linearGradient><linearGradient id="p" x1="34.897" y1="317.411" x2="55.856" y2="302.013" xlink:href="#Ab"><stop stop-color="#2d6eb5" stop-opacity="0"/><stop offset=".999" stop-color="#2d6eb5"/></linearGradient><linearGradient id="q" x1="209.018" y1="98.569" x2="209.018" y2="219.749" xlink:href="#Ab"><stop stop-color="#53c7e4"/><stop offset="1" stop-color="#fff" stop-opacity="0"/></linearGradient><linearGradient id="r" x1="213.011" y1="139.353" x2="240.344" y2="292.645" xlink:href="#Ab"><stop stop-color="#2f46bb"/><stop offset="0" stop-color="#2f46bb"/><stop offset="1" stop-color="#04093f" stop-opacity="0"/></linearGradient><linearGradient id="s" x1="108.922" y1="139.262" x2="225.15" y2="139.262" xlink:href="#Ab"><stop stop-color="#39c5f3" stop-opacity="0"/><stop offset="1" stop-color="#fff" stop-opacity=".8"/></linearGradient><linearGradient id="t" x1="99.38" y1="126.634" x2="222.671" y2="126.634" xlink:href="#Ab"><stop stop-color="#2b3f98"/><stop offset=".504" stop-color="#47a3da" stop-opacity=".9"/><stop offset=".98" stop-color="#fff" stop-opacity=".9"/></linearGradient><linearGradient id="u" x1="62.903" y1="123.322" x2="271.068" y2="133.017" xlink:href="#Ab"><stop stop-color="#2e4fa1"/><stop offset="1" stop-color="#39c5f3" stop-opacity=".9"/></linearGradient><linearGradient id="v" x1="30.046" y1="42.313" x2="55.788" y2="-10.022" xlink:href="#Ab"><stop stop-color="#3c56a5"/><stop offset="1" stop-color="#33c5f3" stop-opacity=".9"/></linearGradient><linearGradient id="w" x1="105.533" y1="31.813" x2="98.462" y2="77.644" xlink:href="#Ab"><stop stop-color="#20946e"/><stop offset="1" stop-color="#60ae87"/></linearGradient><linearGradient id="x" x1="79.629" y1="47.861" x2="127.677" y2="47.861" xlink:href="#Ab"><stop offset=".028" stop-color="#1ab9d0"/><stop offset="1" stop-color="#74c38b"/></linearGradient><linearGradient id="y" x1="99.01" y1="120.586" x2="112.834" y2="139.932" xlink:href="#Ab"><stop stop-color="#82d4f6" stop-opacity=".02"/><stop offset="1" stop-color="#244b9f"/></linearGradient><linearGradient id="z" x1="69.646" y1="112.704" x2="81.348" y2="134.536" xlink:href="#Ab"><stop stop-color="#82d4f6" stop-opacity=".02"/><stop offset="1" stop-color="#244b9f"/></linearGradient><linearGradient id="AA" x1="136.128" y1="157.545" x2="194.46" y2="75.497" xlink:href="#Ab"><stop stop-color="#f9d860"/><stop offset="1" stop-color="#f26c21"/></linearGradient><linearGradient id="AB" x1="148.35" y1="141.615" x2="151.346" y2="115.128" xlink:href="#Ab"><stop stop-color="#e73e24" stop-opacity="0"/><stop offset="1" stop-color="#921b1d"/></linearGradient><linearGradient id="AC" x1="136.22" y1="137.14" x2="141.193" y2="124.008" xlink:href="#Ab"><stop stop-color="#da8627" stop-opacity=".342"/><stop offset="1" stop-color="#da8627"/></linearGradient><linearGradient id="AD" x1="137.309" y1="144.741" x2="144.374" y2="121.078" xlink:href="#Ab"><stop stop-color="#da8627" stop-opacity=".342"/><stop offset="1" stop-color="#da8627"/></linearGradient><linearGradient id="AE" x1="144.889" y1="132.272" x2="149.861" y2="119.141" xlink:href="#Ab"><stop stop-color="#da8627" stop-opacity=".342"/><stop offset="1" stop-color="#da8627"/></linearGradient><linearGradient id="AF" x1="153.562" y1="127.506" x2="158.535" y2="114.375" xlink:href="#Ab"><stop stop-color="#da8627" stop-opacity=".342"/><stop offset="1" stop-color="#da8627"/></linearGradient><linearGradient id="AG" x1="171.267" y1="107.06" x2="171.267" y2="154.871" xlink:href="#Ab"><stop stop-color="#a2ce5f"/><stop offset="1" stop-color="#6dbd45"/></linearGradient><linearGradient id="AH" x1="128.5" y1="219" x2="128.5" y2="260.5" xlink:href="#Ab"><stop stop-color="#04093f" stop-opacity="0"/><stop offset="1" stop-color="#04093f"/></linearGradient><path id="AI" d="M159.323 203.474c-5.02 0-9.79-1.15-13.413-3.247l-50.38-28.95c-4.22-2.423-6.644-6.02-6.644-9.89 0-3.847 2.398-7.47 6.62-9.89l58.797-33.995c3.647-2.098 8.418-3.247 13.438-3.247s9.817 1.15 13.438 3.272l50.28 29.074c4.222 2.448 6.62 6.045 6.62 9.916 0 3.847-2.423 7.468-6.644 9.89l-58.623 33.795c-3.647 2.098-8.443 3.272-13.488 3.272zm8.417-81.827c-3.696 0-7.218.824-9.716 2.248l-58.797 34.02c-1.823 1.05-2.922 2.348-2.922 3.472s1.1 2.398 2.922 3.472l50.38 28.95c2.497 1.424 6.02 2.248 9.716 2.248s7.268-.824 9.74-2.273l58.648-33.82c1.823-1.05 2.922-2.348 2.922-3.472s-1.1-2.423-2.922-3.472l-50.255-29.1c-2.498-1.424-6.02-2.273-9.717-2.273z"/><path id="AJ" d="M159.326 221.808c-5.02 0-9.79-1.15-13.413-3.248l-50.38-28.95c-4.22-2.423-6.644-6.02-6.644-9.89 0-3.846 2.398-7.468 6.62-9.89l58.797-33.995c3.647-2.098 8.418-3.247 13.438-3.247s9.817 1.15 13.438 3.272l50.28 29.074c4.222 2.448 6.62 6.045 6.62 9.916 0 3.847-2.423 7.47-6.645 9.892l-58.622 33.794c-3.647 2.1-8.443 3.273-13.488 3.273zm8.417-81.827c-3.696 0-7.218.824-9.716 2.248l-58.798 34.02c-1.823 1.05-2.922 2.348-2.922 3.472s1.1 2.398 2.922 3.472l50.38 28.95c2.498 1.424 6.02 2.248 9.717 2.248s7.268-.824 9.74-2.273l58.648-33.82c1.823-1.05 2.922-2.348 2.922-3.472s-1.1-2.422-2.922-3.47l-50.255-29.1c-2.498-1.45-6.02-2.273-9.717-2.273z"/><path id="AK" d="M124.956 273.368c-.8-.775-1.674-1.025-2.373-.75-.125.05-.25.1-.375.175l-22.83 13.013c-3.87 2.223-10.665 2.173-14.537-.05L53.67 267.673v.025c-.7-.4-1.674-.175-2.548.674-1.274 1.25-1.848 3.372-1.274 4.77.175.4.425.7.724.9v.025l30.772 17.86c3.047 1.773 6.97 2.648 10.9 2.648 3.847 0 7.693-.85 10.69-2.573l22.63-12.89v-.025c.325-.174.575-.5.75-.924.5-1.423-.075-3.547-1.35-4.795z"/><path id="AL" d="M54.494 268.522c-.574-1.374-2.048-1.498-3.322-.25-.125.125-.25.275-.375.425l-28.8 31.672v8.068l31.397-35.37c1.15-1.35 1.624-3.272 1.1-4.546z"/><path id="AM" d="M54.443 268.596c.575 1.4 0 3.522-1.274 4.77s-2.773 1.124-3.347-.25 0-3.522 1.274-4.77 2.773-1.15 3.347.25z"/><path id="AN" d="M121.61 273.617c-.575 1.4 0 3.522 1.274 4.77s2.772 1.124 3.347-.25c.574-1.4 0-3.522-1.274-4.77s-2.773-1.124-3.347.25z"/><path id="AO" d="M124.956 245.892c-.8-.774-1.674-1.024-2.373-.75-.125.05-.25.1-.375.175L99.38 258.33c-3.87 2.223-10.665 2.173-14.537-.05L53.67 240.197v.025c-.7-.4-1.674-.175-2.548.675-1.274 1.25-1.848 3.372-1.274 4.77.175.4.425.7.724.9v.025l30.772 17.86c3.047 1.773 6.97 2.647 10.9 2.647 3.847 0 7.693-.85 10.69-2.572l22.63-12.89v-.025c.325-.175.575-.5.75-.924.5-1.424-.075-3.547-1.35-4.796z"/><path id="AP" d="M54.494 241.047c-.574-1.374-2.048-1.5-3.322-.25-.125.125-.25.274-.375.424l-28.8 31.672v8.068l31.397-35.394c1.15-1.323 1.624-3.247 1.1-4.52z"/><path id="AQ" d="M54.443 241.096c.575 1.4 0 3.522-1.274 4.77s-2.773 1.124-3.347-.25 0-3.52 1.274-4.77 2.773-1.124 3.347.25z"/><path id="AR" d="M121.61 246.142c-.575 1.4 0 3.522 1.274 4.77s2.772 1.124 3.347-.25c.574-1.4 0-3.522-1.274-4.77s-2.773-1.15-3.347.25z"/><path id="AS" d="M124.956 300.843c-.8-.774-1.674-1.024-2.373-.75-.125.05-.25.1-.375.175l-22.83 13.013c-3.87 2.223-10.665 2.173-14.537-.05L53.67 295.148v.025c-.7-.4-1.674-.175-2.548.675-1.274 1.248-1.848 3.372-1.274 4.77.175.4.425.7.724.9v.025l30.772 17.86c3.047 1.773 6.97 2.647 10.9 2.647 3.847 0 7.693-.85 10.69-2.573l22.63-12.888v-.025c.325-.175.575-.5.75-.924.5-1.4-.075-3.547-1.35-4.796z"/><path id="AT" d="M54.494 296.023c-.574-1.374-2.048-1.5-3.322-.25-.125.125-.25.275-.375.424l-28.8 31.672v8.068l31.397-35.393c1.15-1.324 1.624-3.248 1.1-4.52z"/><path id="AU" d="M54.443 296.073c.575 1.398 0 3.52-1.274 4.77s-2.773 1.124-3.347-.25c-.575-1.4 0-3.522 1.274-4.77s2.773-1.124 3.347.25z"/><path id="AV" d="M124.956 355.27c-.8-.774-1.674-1.024-2.373-.75-.125.05-.25.1-.375.175l-22.83 13.013c-3.87 2.223-10.665 2.173-14.537-.05L53.67 349.575v.025c-.7-.4-1.674-.175-2.548.674-1.274 1.25-1.848 3.372-1.274 4.77.175.4.425.7.724.9v.025l30.772 17.86c3.047 1.773 6.97 2.648 10.9 2.648 3.847 0 7.693-.85 10.69-2.573l22.63-12.89v-.025c.325-.174.575-.5.75-.924.5-1.424-.075-3.547-1.35-4.796z"/><path id="AW" d="M54.443 350.474c.575 1.4 0 3.522-1.274 4.77s-2.773 1.124-3.347-.25c-.575-1.4 0-3.522 1.274-4.77s2.773-1.124 3.347.25z"/><path id="AX" d="M121.61 355.52c-.575 1.4 0 3.522 1.274 4.77s2.772 1.124 3.347-.25c.574-1.398 0-3.522-1.274-4.77s-2.773-1.124-3.347.25z"/><path id="AY" d="M255.19 138.213l-.275 195.826-92.093 53.452.35-301.906 90.87 50.655a2.28 2.28 0 0 1 1.149 1.973z"/><path id="AZ" d="M255.055 137.333l-.275 197.2-91.593 53.377.274-197.2 90.87-52.078c.4-.2.625-.65.725-1.3z"/><path id="Aa" d="M79.597 141.76l93.34-53.477 80.803 47.158c.8.475 1.074 1.5.6 2.298-.15.25-.35.475-.625.624l-90.744 52.004-83.375-48.607z"/><linearGradient id="Ab" gradientUnits="userSpaceOnUse"/></defs></svg>