<svg xmlns="http://www.w3.org/2000/svg" xmlns:xlink="http://www.w3.org/1999/xlink" width="44" height="44" fill="none"><path fill-rule="evenodd" d="M22 0C9.85 0 0 9.85 0 22s9.85 22 22 22 22-9.85 22-22S34.15 0 22 0z" fill="url(#B)"/><g filter="url(#A)"><use xlink:href="#C" fill="#000"/></g><use xlink:href="#C" fill="#fff"/><defs><filter id="A" x="7.56" y="10.2" width="33.76" height="27.6" filterUnits="userSpaceOnUse" color-interpolation-filters="sRGB"><feFlood flood-opacity="0" result="A"/><feColorMatrix in="SourceAlpha" values="0 0 0 0 0 0 0 0 0 0 0 0 0 0 0 0 0 0 127 0"/><feOffset dx="2" dy="2"/><feGaussianBlur stdDeviation="2.5"/><feColorMatrix values="0 0 0 0 0.326952 0 0 0 0 0.372942 0 0 0 0 0.638659 0 0 0 0.414798 0"/><feBlend in2="A"/><feBlend in="SourceGraphic"/></filter><linearGradient id="B" x1="-12.455" y1="58.454" x2="35.775" y2="7.426" gradientUnits="userSpaceOnUse"><stop stop-color="#300db2"/><stop offset="1" stop-color="#00b8e9"/></linearGradient><path id="C" d="M34.32 27.015c0 2.09-1.667 3.785-3.724 3.785H14.284c-2.057 0-3.724-1.694-3.724-3.785v-10.03c0-2.1 1.667-3.784 3.724-3.784h16.312c2.057 0 3.724 1.694 3.724 3.785v10.03zm-22-.714c0 1.026.8 1.86 1.766 1.86h15.828c.976 0 1.766-.832 1.766-1.86v-6.06H12.32v6.06zm17.618-10.427l-15.826-.034c-.976 0-1.792.62-1.792 1.778v.828l19.36.034v-.827c0-1.157-.767-1.778-1.742-1.778z"/></defs></svg>