<svg xmlns="http://www.w3.org/2000/svg" xmlns:xlink="http://www.w3.org/1999/xlink" width="253" height="428" fill="none"><style>.B{opacity:.1}.C{opacity:.08}.D{opacity:.2}.E{fill:#233e98}.F{opacity:.02}.G{opacity:.9}.H{fill:#36459b}.I{fill:#d8eaf3}.J{fill:#171b2f}.K{stroke-width:.322}.L{stroke-linejoin:round}.M{stroke-width:.203}</style><path d="M1.5 251.096l.17-127.553 10.253 5.98 37.328 21.564v.245l.248.145 11.132 6.51.15-.01.34-.02-.197 175.206-58.78-34.336.025-47.334-.245-.146-.425-.25z" stroke="url(#A)" class="G"/><path d="M62.147 157.914l67.273-38.2-.197 144.983-67.273 38.64.197-145.424z" stroke="url(#B)" class="B"/><path d="M1.223 111.307h1.6v1.193h-1.6v-1.193z" class="H"/><path d="M129.873 107.26h-.795v1.192h.795v-1.192z" class="I"/><path d="M69.74 71.852l.003.002 58.166 33.9a1.73 1.73 0 0 1 .617 2.366c-.168.27-.382.492-.603.61l-.014.008-64.172 37.277a3.99 3.99 0 0 1-3.97.002l-.001-.001-57.17-33.08a1.738 1.738 0 0 1-.64-2.372l.002-.003a1.66 1.66 0 0 1 .634-.633l.003-.002 65.414-38.07c.546-.31 1.222-.306 1.732-.004z" stroke="url(#C)" class="G"/><path d="M92.198 95.363L79.58 88.086a3.89 3.89 0 0 0-3.825 0L42.6 107.334l-2.558-.597v2.186c0 .422.224.844.646 1.093l14.057 8.146c1.192.67 2.633.67 3.8 0l35.068-20.365c.422-.248.646-.67.646-1.093v.646-2.806l-2.06.82z" fill="url(#D)"/><path d="M40.692 105.645L75.76 85.28a3.89 3.89 0 0 1 3.825 0l14.032 8.146c.844.497.844 1.714 0 2.186L58.55 115.976a3.843 3.843 0 0 1-3.8 0l-14.057-8.146c-.844-.472-.844-1.688 0-2.185z" fill="#fff"/><path d="M44.414 104.353L74.887 86.67l16.392 9.487L60.83 113.84l-16.416-9.487z" fill="#223e7d"/><path d="M83.555 89.303l3.104 1.788c.174.1.174.323 0 .422a.45.45 0 0 1-.497 0l-3.055-1.788c-.174-.1-.174-.323 0-.422.1-.075.273-.075.447 0zm2.705 11.127l2.06-1.192c.174-.124.422.025.422.248 0 .273-.15.52-.373.67l-2.06 1.193c-.174.124-.422-.025-.422-.25-.025-.323.124-.57.373-.67zm-35.662 11.35c1.193 0 2.16-.6 2.16-1.342s-.967-1.34-2.16-1.34-2.16.6-2.16 1.34.967 1.342 2.16 1.342z" fill="#89acda"/><path d="M103.32 86.433l.002.001c.488.28.96.8 1.313 1.398s.56 1.26.572 1.8v12.636c0 .576-.2.848-.38.952s-.516.138-1.007-.143L86.183 92.96v.052l-6.688-3.818-4.22 7.306-4.222-12.204-3.5-2.05.026-.026-20.375-11.873c-.493-.294-.965-.81-1.315-1.426s-.552-1.282-.552-1.845V54.41c0-.565.195-.83.368-.93s.5-.137.993.146l56.624 32.807z" stroke="#6dbd45" class="J"/><path d="M80.363 143.01l.013.008.013.008 13.86 8.07 50.267 29v.32l.248.145 15.696 9.144-.272 233.862-79.32-46.257.025-62.366-.92-.522.22-171.526.17.123z" stroke="url(#E)" class="G"/><path opacity=".04" d="M53.197 212.952c.57 1.4 0 3.5-1.267 4.743s-2.757 1.118-3.328-.248 0-3.502 1.267-4.744 2.757-1.117 3.328.25z" fill="url(#F)"/><g class="B"><path d="M123.3 271.812c-.795-.77-1.664-1.018-2.36-.745a2.39 2.39 0 0 0-.372.174l-22.7 12.94c-3.85 2.2-10.605 2.16-14.454-.05L52.43 266.15v.025c-.695-.397-1.664-.174-2.533.67-1.267 1.24-1.838 3.352-1.267 4.743.174.398.422.696.72.894v.025l30.598 17.758c3.03 1.763 6.93 2.632 10.828 2.632 3.825 0 7.65-.844 10.63-2.558l22.5-12.815v-.025c.323-.174.57-.497.745-.92.496-1.415-.075-3.526-1.34-4.768z" fill="url(#G)" class="B"/><path d="M53.248 266.994c-.57-1.366-2.036-1.5-3.303-.248-.124.124-.248.273-.372.422l-28.636 31.49v8.022l31.218-35.167c1.142-1.34 1.614-3.253 1.093-4.52z" fill="url(#H)" class="C"/><path d="M53.197 267.068c.57 1.4 0 3.5-1.267 4.743s-2.757 1.118-3.328-.248 0-3.502 1.267-4.744 2.757-1.142 3.328.25z" fill="url(#I)" class="B"/><path d="M119.98 272.06c-.572 1.39 0 3.502 1.266 4.743s2.757 1.118 3.328-.248c.57-1.39 0-3.502-1.266-4.744s-2.757-1.117-3.328.25z" class="D E"/><path d="M123.3 244.493c-.795-.77-1.664-1.018-2.36-.745a2.39 2.39 0 0 0-.372.174l-22.7 12.94c-3.85 2.2-10.605 2.16-14.454-.05L52.43 238.83v.025c-.695-.397-1.664-.174-2.533.67-1.267 1.242-1.838 3.353-1.267 4.743.174.398.422.696.72.894v.025l30.598 17.758c3.03 1.763 6.93 2.632 10.828 2.632 3.825 0 7.65-.844 10.63-2.558l22.5-12.815v-.025c.323-.174.57-.497.745-.92.496-1.415-.075-3.526-1.34-4.768z" fill="url(#J)"/><path d="M53.248 239.675c-.57-1.366-2.036-1.5-3.303-.25-.124.125-.248.274-.372.423l-28.636 31.49v8.022l31.218-35.192c1.142-1.316 1.614-3.23 1.093-4.495z" fill="url(#K)" class="C"/><path d="M53.197 239.724c.57 1.39 0 3.502-1.267 4.744s-2.757 1.117-3.328-.25 0-3.5 1.267-4.743 2.757-1.118 3.328.248z" fill="url(#L)"/><path d="M119.98 244.74c-.572 1.39 0 3.502 1.266 4.744s2.757 1.118 3.328-.248c.57-1.39 0-3.502-1.266-4.744s-2.757-1.142-3.328.248z" class="D E"/><path d="M123.3 299.13c-.795-.77-1.664-1.018-2.36-.745a2.59 2.59 0 0 0-.372.174l-22.7 12.94c-3.85 2.2-10.605 2.16-14.454-.05L52.43 293.47v.025c-.695-.398-1.664-.174-2.533.67-1.267 1.242-1.838 3.353-1.267 4.744.174.397.422.695.72.894v.025l30.598 17.757c3.03 1.764 6.93 2.633 10.828 2.633 3.825 0 7.65-.845 10.63-2.558l22.5-12.815v-.025c.323-.174.57-.497.745-.92.496-1.39-.075-3.527-1.34-4.77z" fill="url(#M)"/><path d="M53.248 294.338c-.57-1.366-2.036-1.5-3.303-.248-.124.124-.248.273-.372.422l-28.636 31.492v8.02l31.218-35.192c1.142-1.316 1.614-3.228 1.093-4.495z" fill="url(#N)" class="C"/><path d="M53.197 294.388c.57 1.39 0 3.502-1.267 4.744s-2.757 1.117-3.328-.25c-.57-1.4 0-3.5 1.267-4.743s2.757-1.118 3.328.248z" fill="url(#O)"/><use xlink:href="#p" class="D E"/></g><g class="F"><path d="M123.3 353.248c-.795-.77-1.664-1.02-2.36-.745-.124.05-.248.1-.372.173l-22.7 12.94c-3.85 2.2-10.605 2.16-14.454-.05l-30.995-17.98v.025c-.695-.397-1.664-.174-2.533.67-1.267 1.242-1.838 3.353-1.267 4.744.174.397.422.695.72.894v.025L79.947 371.7c3.03 1.764 6.93 2.633 10.828 2.633 3.825 0 7.65-.844 10.63-2.558l22.5-12.815v-.025c.323-.174.57-.497.745-.92.496-1.416-.075-3.527-1.34-4.768z" fill="url(#P)" class="F"/><path d="M53.248 348.43c-.57-1.366-2.036-1.49-3.303-.25-.124.124-.248.273-.372.422l-28.636 31.492v8.022l31.218-35.192c1.142-1.316 1.614-3.23 1.093-4.495z" fill="url(#Q)" class="C"/><path d="M53.197 348.48c.57 1.39 0 3.502-1.267 4.744s-2.757 1.118-3.328-.248c-.57-1.39 0-3.502 1.267-4.744s2.757-1.117 3.328.248z" fill="url(#R)" class="F"/><path d="M119.98 353.496c-.572 1.39 0 3.502 1.266 4.744s2.757 1.117 3.328-.25c.57-1.4 0-3.5-1.266-4.743s-2.757-1.118-3.328.248z" class="D E"/></g><path d="M78.208 140.954l92.81-53.173 80.343 46.89c.795.472 1.068 1.5.596 2.285a1.66 1.66 0 0 1-.621.621l-90.228 51.708-82.9-48.33z" stroke="url(#S)" class="K L"/><path opacity=".6" d="M252.626 137.526l-.2 129.27-61.592 35.067.2-129.294 61.592-35.043z" fill="url(#T)"/><path d="M78.73 127.145h2.137v1.615H78.73v-1.615z" class="H"/><path d="M252.827 121.756h-1.068v1.615h1.068v-1.615z" class="I"/><g class="B"><path d="M123.3 271.812c-.795-.77-1.664-1.018-2.36-.745-.124.05-.248.1-.372.174l-22.7 12.94c-3.85 2.21-10.605 2.16-14.454-.05L52.43 266.174c-.695-.397-1.664-.173-2.533.67-1.267 1.242-1.838 3.353-1.267 4.744.174.397.422.695.72.894v.024l30.598 17.758c3.03 1.763 6.93 2.632 10.828 2.632 3.825 0 7.65-.844 10.63-2.558l22.5-12.815v-.025c.323-.173.57-.496.745-.92.496-1.415-.075-3.526-1.34-4.768z" fill="url(#U)" class="B"/><path d="M53.248 266.994c-.57-1.366-2.036-1.5-3.303-.248-.124.124-.248.273-.372.422L20.937 298.66v8.022l31.218-35.168c1.142-1.34 1.614-3.253 1.093-4.52z" fill="url(#V)" class="C"/><path d="M53.197 267.068c.57 1.39 0 3.502-1.267 4.743s-2.757 1.118-3.328-.248 0-3.502 1.267-4.744 2.757-1.142 3.328.25z" fill="url(#I)" class="B"/><path d="M119.98 272.06c-.572 1.39 0 3.502 1.266 4.744s2.757 1.117 3.328-.25c.57-1.4 0-3.502-1.266-4.743s-2.757-1.118-3.328.248z" class="D E"/><path d="M123.3 244.493c-.795-.77-1.664-1.018-2.36-.745-.124.05-.248.1-.372.174l-22.7 12.94c-3.85 2.21-10.605 2.16-14.454-.05L52.43 238.855c-.695-.397-1.664-.173-2.533.67-1.267 1.242-1.838 3.353-1.267 4.744.174.397.422.695.72.894v.024l30.598 17.758c3.03 1.763 6.93 2.632 10.828 2.632 3.825 0 7.65-.844 10.63-2.558l22.5-12.815v-.025c.323-.173.57-.496.745-.918.496-1.416-.075-3.527-1.34-4.77z" fill="url(#W)"/><use xlink:href="#q" fill="url(#X)" class="C"/><path d="M53.197 239.724c.57 1.39 0 3.502-1.267 4.744s-2.757 1.118-3.328-.248 0-3.502 1.267-4.744 2.757-1.117 3.328.248z" fill="url(#Y)"/><use xlink:href="#p" y="-54.663" class="D E"/><path d="M123.3 299.132c-.795-.77-1.664-1.02-2.36-.745-.124.05-.248.1-.372.173l-22.7 12.94c-3.85 2.2-10.605 2.16-14.454-.05L52.43 293.47v.025c-.695-.397-1.664-.174-2.533.67-1.267 1.24-1.838 3.352-1.267 4.743.174.397.422.696.72.894v.025l30.598 17.757c3.03 1.764 6.93 2.633 10.828 2.633 3.825 0 7.65-.844 10.63-2.558l22.5-12.815v-.025c.323-.174.57-.497.745-.92.496-1.39-.075-3.527-1.34-4.768z" fill="url(#Z)"/><path d="M53.248 294.338c-.57-1.366-2.036-1.5-3.303-.248-.124.124-.248.273-.372.422l-28.636 31.492v8.022l31.218-35.192c1.142-1.317 1.614-3.23 1.093-4.496z" fill="url(#a)" class="C"/><path d="M53.197 294.388c.57 1.39 0 3.502-1.267 4.744s-2.757 1.118-3.328-.248c-.57-1.39 0-3.502 1.267-4.744s2.757-1.118 3.328.248z" fill="url(#b)"/><path d="M119.98 299.405c-.572 1.39 0 3.502 1.266 4.743s2.757 1.118 3.328-.248c.57-1.39 0-3.502-1.266-4.744s-2.757-1.142-3.328.25z" class="D E"/></g><g class="F"><path d="M123.3 353.248c-.795-.77-1.664-1.018-2.36-.745-.124.05-.248.1-.372.174l-22.7 12.94c-3.85 2.2-10.605 2.16-14.454-.05l-30.995-17.98v.025c-.695-.397-1.664-.174-2.533.67-1.267 1.242-1.838 3.353-1.267 4.743.174.398.422.696.72.895v.024L79.947 371.7c3.03 1.763 6.93 2.632 10.828 2.632 3.825 0 7.65-.844 10.63-2.558l22.5-12.815v-.025c.323-.174.57-.496.745-.92.496-1.415-.075-3.526-1.34-4.768z" fill="url(#c)" class="F"/><use xlink:href="#q" y="108.755" fill="url(#d)" class="C"/><path d="M53.197 348.48c.57 1.39 0 3.502-1.267 4.743s-2.757 1.118-3.328-.248c-.57-1.39 0-3.502 1.267-4.743s2.757-1.118 3.328.248z" fill="url(#R)" class="F"/><path d="M119.98 353.496c-.572 1.39 0 3.502 1.266 4.744s2.757 1.118 3.328-.248c.57-1.39 0-3.502-1.266-4.744s-2.757-1.117-3.328.248z" class="D E"/></g><path opacity=".8" d="M192.776 171.816l59.388-33.52-.27 194.047-90.902 53.462V189.55l31.784-17.734z" stroke="url(#e)"/><path d="M78.208 140.954l92.81-53.173 80.343 46.89a1.667 1.667 0 0 1 .596 2.285c-.15.25-.348.472-.62.62l-90.228 51.708-82.9-48.33z" stroke="url(#f)" class="K L"/><path d="M78.728 127.145h2.137v1.615h-2.137v-1.615z" class="H"/><path d="M252.826 121.756h-1.068v1.615h1.068v-1.615z" class="I"/><path d="M252.02 122.597l-.002.003c-.154.27-.363.48-.634.634l-.002.001-88.363 51.1a3.99 3.99 0 0 1-3.974.001L80.17 128.873a1.737 1.737 0 0 1-.64-2.37l.002-.003a1.67 1.67 0 0 1 .633-.634l.003-.001 89.66-51.96c.5-.302 1.16-.307 1.706.003l79.844 46.318a1.735 1.735 0 0 1 .64 2.37z" stroke="url(#g)" class="G"/><path opacity=".902" d="M39.6 33.097L65.484 2.65C66.706 1.394 67.604.78 68.38.58c.74-.193 1.45-.03 2.37.504l.007.004.007.004L81.718 7.01 40.7 31.863l.468.882L88.56 10.898l10.528 5.957c1.06.6 1.7 1.1 2.034 1.467.164.186.226.317.246.396a.197.197 0 0 1-.02.157c-.037.066-.12.162-.297.28s-.41.234-.71.355c-.606.243-1.42.475-2.408.722L39.6 33.097z" stroke="url(#h)"/><path opacity=".263" d="M82.622 10.312C115.802-7.57 143.817.824 166.666 35.52m-52.378 5.54c10.754-6.433 21.483-4.098 32.237 7.004" stroke="#37baec" stroke-width=".549" stroke-linecap="round" stroke-dasharray="2.56 2.56"/><path d="M123.825 47.95c.786.448 1.248.794 1.48 1.055a.63.63 0 0 1 .152.234c-.015.04-.06.096-.183.176s-.286.16-.507.248c-.442.174-1.04.34-1.772.52L81.23 58.677l34.05-15.617 8.544 4.89zM80.267 58.873l-.647.132.46-.487.188.355zM110 40.03L81.037 57.51 99.82 37.556c.903-.915 1.55-1.346 2.088-1.487.502-.13.99-.03 1.645.354l.01.005L110 40.03z" stroke="url(#i)" class="G"/><path d="M177.85 115.583v.001c0 .524-.19 1.12-.504 1.656s-.743.998-1.207 1.26h-.001l-44.53 25.332c-.466.263-.86.274-1.13.115s-.455-.507-.455-1.045l.124-30.076c0-.524.19-1.12.504-1.656s.743-.998 1.207-1.26l.001-.001 44.53-25.332c.466-.263.86-.274 1.13-.116s.455.507.455 1.045l-.124 30.076z" stroke="url(#j)" class="J M"/><path opacity=".3" d="M129.994 124.003l48.032-27.32.025-7.004L130.02 117l-.025 7.004z" fill="url(#k)"/><g opacity=".37"><path opacity=".37" d="M140.8 126.49l-7.004 3.998a.59.59 0 0 0-.273.472l-.025 2.36c0 .174.124.25.273.15l7.004-4a.59.59 0 0 0 .273-.472l.025-2.36c0-.174-.1-.25-.273-.15z" fill="url(#l)"/><path opacity=".37" d="M149.74 126.81l-15.945 9.04c-.15.074-.273.298-.273.47l-.025 2.36c0 .174.124.248.273.15l15.945-9.04a.59.59 0 0 0 .273-.472l.025-2.36c0-.173-.124-.248-.273-.15z" fill="url(#m)"/></g><g opacity=".6" fill="#fff"><path opacity=".433" d="M170.962 109.477c-1.64.944-2.98 3.204-2.98 5.14s1.342 2.658 2.98 1.714 2.98-3.278 2.98-5.14c0-1.962-1.34-2.658-2.98-1.714z"/><path opacity=".6" d="M167.386 112.085c-1.64.944-2.98 3.204-2.98 5.14 0 1.962 1.34 2.657 2.98 1.714s2.98-3.28 2.98-5.14c0-1.938-1.316-2.658-2.98-1.714z"/></g><path d="M147.23 132.362l44.53-25.556c.466-.263.86-.273 1.13-.113s.456.516.456 1.067l-.124 17.485c0 .537-.19 1.14-.504 1.678s-.743 1-1.207 1.263l-.001.001-44.53 25.53c-.467.263-.86.274-1.132.116s-.455-.507-.455-1.045l.124-17.485c0-.536.19-1.14.505-1.678s.742-1 1.206-1.263z" stroke="url(#n)" class="J M"/><path d="M154.9 136.744l1.74-.993c.422-.248.745-.298.968-.15.224.124.348.422.348.894 0 .447-.124.87-.348 1.267a2.59 2.59 0 0 1-.968.968l-.77.447v1.888l-.97.546v-4.868zm1.6 1.068c.372-.198.546-.47.546-.82 0-.174-.05-.273-.124-.323s-.223 0-.422.1l-.646.373v1.043l.646-.373zm5.083-.074l-.323-.82-1.614.944-.323 1.192-.97.547 1.7-5.837.745-.447 1.714 3.875-.92.546zm-1.614-1.043l.993-.57-.496-1.242-.497 1.813zm6.506-6.655l-1.54 3.9v1.838l-.97.57v-1.862l-1.515-2.1 1.068-.62.92 1.415.944-2.483 1.093-.646zm5.438-3.14l.894-.522v4.843l-.695.397-1.664-1.788v2.757l-.894.522v-4.868l.695-.398 1.664 1.8V126.9zm3.13 2.8c-.273-.05-.497-.2-.646-.497s-.223-.695-.223-1.192.074-.993.223-1.44.373-.87.646-1.217c.273-.373.596-.646.97-.87s.695-.298.968-.248.472.2.62.497.224.695.224 1.192-.075.993-.224 1.44c-.15.472-.348.87-.62 1.242s-.596.646-.968.87-.696.273-.97.224zm1.614-1.987c.15-.348.224-.77.224-1.267s-.075-.82-.224-.993-.372-.174-.645-.025-.497.397-.646.745-.224.77-.224 1.267.075.844.224.993c.15.174.372.174.646.025s.472-.397.645-.745zm6.908-7.55l.92-.52-1.292 5.588-.77.447-.77-2.434-.77 3.328-.745.447-1.317-4.123.994-.546.745 2.632.795-3.526.67-.398.77 2.658.77-3.552z" fill="#fff"/><path fill="url(#o)" d="M0 219h253v209H0z"/><defs><linearGradient id="A" x1="-4.991" y1="224.6" x2="67.295" y2="225.166" xlink:href="#r"><stop stop-color="#2e4fa1"/><stop offset="1" stop-color="#39c5f3" stop-opacity=".9"/></linearGradient><linearGradient id="B" x1="98.584" y1="120.349" x2="80.181" y2="197.47" xlink:href="#r"><stop stop-color="#2f46bb"/><stop offset="1" stop-color="#171b2f"/></linearGradient><linearGradient id="C" x1="-11.475" y1="107.883" x2="140.875" y2="114.957" xlink:href="#r"><stop stop-color="#2e4fa1"/><stop offset="1" stop-color="#39c5f3" stop-opacity=".9"/></linearGradient><linearGradient id="D" x1="40.891" y1="100.338" x2="87.822" y2="115.417" xlink:href="#r"><stop stop-color="#e8ecf7"/><stop offset="1" stop-color="#cbd3eb"/></linearGradient><linearGradient id="E" x1="71.42" y1="278.213" x2="168.581" y2="278.977" xlink:href="#r"><stop stop-color="#2e4fa1"/><stop offset="1" stop-color="#39c5f3" stop-opacity=".9"/></linearGradient><linearGradient id="F" x1="46.012" y1="213.217" x2="64.826" y2="217.464" xlink:href="#r"><stop stop-color="#fff"/><stop offset="1" stop-color="#39c5f3" stop-opacity="0"/></linearGradient><linearGradient id="G" x1="48.459" y1="279.377" x2="124.876" y2="279.377" xlink:href="#r"><stop stop-color="#a8d7f3"/><stop offset="1" stop-color="#fff" stop-opacity="0"/></linearGradient><linearGradient id="H" x1="33.76" y1="288.264" x2="54.601" y2="272.953" xlink:href="#r"><stop stop-color="#2d6eb5" stop-opacity="0"/><stop offset=".999" stop-color="#2d6eb5"/></linearGradient><linearGradient id="I" x1="46.012" y1="267.317" x2="64.826" y2="271.565" xlink:href="#r"><stop stop-color="#fff"/><stop offset="1" stop-color="#39c5f3" stop-opacity="0"/></linearGradient><linearGradient id="J" x1="48.459" y1="252.05" x2="124.876" y2="252.05" xlink:href="#r"><stop stop-color="#a8d7f3"/><stop offset="1" stop-color="#fff" stop-opacity="0"/></linearGradient><linearGradient id="K" x1="33.76" y1="260.932" x2="54.601" y2="245.622" xlink:href="#r"><stop stop-color="#2d6eb5" stop-opacity="0"/><stop offset=".999" stop-color="#2d6eb5"/></linearGradient><linearGradient id="L" x1="46.012" y1="239.989" x2="64.826" y2="244.237" xlink:href="#r"><stop stop-color="#fff"/><stop offset="1" stop-color="#39c5f3" stop-opacity="0"/></linearGradient><linearGradient id="M" x1="48.459" y1="306.699" x2="124.876" y2="306.699" xlink:href="#r"><stop stop-color="#a8d7f3"/><stop offset="1" stop-color="#fff" stop-opacity="0"/></linearGradient><linearGradient id="N" x1="33.76" y1="315.603" x2="54.602" y2="300.286" xlink:href="#r"><stop stop-color="#2d6eb5" stop-opacity="0"/><stop offset=".999" stop-color="#2d6eb5"/></linearGradient><linearGradient id="O" x1="46.012" y1="294.647" x2="64.826" y2="298.896" xlink:href="#r"><stop stop-color="#fff"/><stop offset="1" stop-color="#39c5f3" stop-opacity="0"/></linearGradient><linearGradient id="P" x1="48.459" y1="360.808" x2="124.876" y2="360.808" xlink:href="#r"><stop stop-color="#a8d7f3"/><stop offset="1" stop-color="#fff" stop-opacity="0"/></linearGradient><linearGradient id="Q" x1="33.76" y1="369.697" x2="54.601" y2="354.386" xlink:href="#r"><stop stop-color="#2d6eb5" stop-opacity="0"/><stop offset=".999" stop-color="#2d6eb5"/></linearGradient><linearGradient id="R" x1="46.012" y1="348.748" x2="64.826" y2="352.996" xlink:href="#r"><stop stop-color="#fff"/><stop offset="1" stop-color="#39c5f3" stop-opacity="0"/></linearGradient><linearGradient id="S" x1="107.35" y1="138.469" x2="222.916" y2="138.469" xlink:href="#r"><stop stop-color="#39c5f3" stop-opacity="0"/><stop offset="1" stop-color="#fff" stop-opacity=".8"/></linearGradient><linearGradient id="T" x1="224.425" y1="138.814" x2="208.36" y2="207.312" xlink:href="#r"><stop stop-color="#fff"/><stop offset="1" stop-color="#fff" stop-opacity="0"/></linearGradient><linearGradient id="U" x1="48.457" y1="279.378" x2="124.873" y2="279.378" xlink:href="#r"><stop stop-color="#a8d7f3"/><stop offset="1" stop-color="#fff" stop-opacity="0"/></linearGradient><linearGradient id="V" x1="33.762" y1="288.264" x2="54.602" y2="272.954" xlink:href="#r"><stop stop-color="#2d6eb5" stop-opacity="0"/><stop offset=".999" stop-color="#2d6eb5"/></linearGradient><linearGradient id="W" x1="48.457" y1="252.05" x2="124.873" y2="252.05" xlink:href="#r"><stop stop-color="#a8d7f3"/><stop offset="1" stop-color="#fff" stop-opacity="0"/></linearGradient><linearGradient id="X" x1="33.762" y1="260.932" x2="54.602" y2="245.622" xlink:href="#r"><stop stop-color="#2d6eb5" stop-opacity="0"/><stop offset=".999" stop-color="#2d6eb5"/></linearGradient><linearGradient id="Y" x1="46.012" y1="239.99" x2="64.826" y2="244.237" xlink:href="#r"><stop stop-color="#fff"/><stop offset="1" stop-color="#39c5f3" stop-opacity="0"/></linearGradient><linearGradient id="Z" x1="48.457" y1="306.7" x2="124.873" y2="306.7" xlink:href="#r"><stop stop-color="#a8d7f3"/><stop offset="1" stop-color="#fff" stop-opacity="0"/></linearGradient><linearGradient id="a" x1="33.762" y1="315.603" x2="54.604" y2="300.286" xlink:href="#r"><stop stop-color="#2d6eb5" stop-opacity="0"/><stop offset=".999" stop-color="#2d6eb5"/></linearGradient><linearGradient id="b" x1="46.012" y1="294.648" x2="64.827" y2="298.896" xlink:href="#r"><stop stop-color="#fff"/><stop offset="1" stop-color="#39c5f3" stop-opacity="0"/></linearGradient><linearGradient id="c" x1="48.457" y1="360.808" x2="124.873" y2="360.808" xlink:href="#r"><stop stop-color="#a8d7f3"/><stop offset="1" stop-color="#fff" stop-opacity="0"/></linearGradient><linearGradient id="d" x1="33.762" y1="260.942" x2="54.602" y2="245.631" xlink:href="#r"><stop stop-color="#2d6eb5" stop-opacity="0"/><stop offset=".999" stop-color="#2d6eb5"/></linearGradient><linearGradient id="e" x1="210.862" y1="138.56" x2="191.237" y2="217.081" xlink:href="#r"><stop stop-color="#2f46bb"/><stop offset="0" stop-color="#2f46bb"/><stop offset="1" stop-color="#171b2f"/></linearGradient><linearGradient id="f" x1="107.367" y1="138.47" x2="222.933" y2="138.47" xlink:href="#r"><stop stop-color="#39c5f3" stop-opacity="0"/><stop offset="1" stop-color="#fff" stop-opacity=".8"/></linearGradient><linearGradient id="g" x1="61.609" y1="122.621" x2="268.59" y2="132.26" xlink:href="#r"><stop stop-color="#2e4fa1"/><stop offset="1" stop-color="#39c5f3" stop-opacity=".9"/></linearGradient><linearGradient id="h" x1="28.939" y1="42.072" x2="54.534" y2="-9.965" xlink:href="#r"><stop stop-color="#3c56a5"/><stop offset="1" stop-color="#33c5f3" stop-opacity=".9"/></linearGradient><linearGradient id="i" x1="78.239" y1="47.589" x2="126.014" y2="47.589" xlink:href="#r"><stop offset=".028" stop-color="#1ab9d0"/><stop offset="1" stop-color="#74c38b"/></linearGradient><linearGradient id="j" x1="134.416" y1="156.649" x2="192.416" y2="75.068" xlink:href="#r"><stop stop-color="#f9d860"/><stop offset="1" stop-color="#f26c21"/></linearGradient><linearGradient id="k" x1="146.568" y1="140.81" x2="149.546" y2="114.473" xlink:href="#r"><stop stop-color="#1b9220" stop-opacity="0"/><stop offset="1" stop-color="#1b9220"/></linearGradient><linearGradient id="l" x1="134.508" y1="136.359" x2="139.453" y2="123.303" xlink:href="#r"><stop stop-color="#da8627" stop-opacity=".342"/><stop offset="1" stop-color="#da8627"/></linearGradient><linearGradient id="m" x1="135.59" y1="143.917" x2="142.615" y2="120.389" xlink:href="#r"><stop stop-color="#da8627" stop-opacity=".342"/><stop offset="1" stop-color="#da8627"/></linearGradient><linearGradient id="n" x1="169.354" y1="106.451" x2="169.354" y2="153.99" xlink:href="#r"><stop stop-color="#a2ce5f"/><stop offset="1" stop-color="#6dbd45"/></linearGradient><linearGradient id="o" x1="126.5" y1="219" x2="126.5" y2="260.5" xlink:href="#r"><stop stop-color="#04093f" stop-opacity="0"/><stop offset="1" stop-color="#04093f"/></linearGradient><path id="p" d="M119.98 299.405c-.572 1.4 0 3.5 1.266 4.743s2.757 1.118 3.328-.248c.57-1.39 0-3.502-1.266-4.744s-2.757-1.142-3.328.25z"/><path id="q" d="M53.248 239.675c-.57-1.366-2.036-1.5-3.303-.248-.124.124-.248.273-.372.422l-28.636 31.49v8.022l31.218-35.192c1.142-1.316 1.614-3.228 1.093-4.495z"/><linearGradient id="r" gradientUnits="userSpaceOnUse"/></defs></svg>