<svg xmlns="http://www.w3.org/2000/svg" width="44" height="44" fill="none"><path d="M22 44c12.15 0 22-9.85 22-22S34.15 0 22 0 0 9.85 0 22s9.85 22 22 22z" fill="url(#B)"/><g filter="url(#A)" fill="#fff"><path d="M32.512 15.95a1.19 1.19 0 0 1 1.45-.815 1.19 1.19 0 0 1 .844 1.433l-1.016 3.778a1.19 1.19 0 0 1-1.453.839l-3.036-.8a1.19 1.19 0 0 1-.817-1.447 1.19 1.19 0 0 1 1.428-.849l1.892.503.708-2.633z"/><path d="M30.435 25.49a1.19 1.19 0 0 1 .23-.408 1.187 1.187 0 0 1 .822-.409 1.19 1.19 0 0 1 .464.062c.15.05.287.13.404.236s.214.232.282.374.107.297.115.454-.016.315-.07.463c-1.64 4.77-6.17 7.86-11.11 7.564s-9.08-3.903-10.168-8.835c-1.085-4.924 1.132-9.994 5.452-12.44 4.187-2.372 10.034-1.408 13.228 1.93 1.37 1.433 2.136 2.416 3.417 4.337.087.13.147.275.177.428a1.19 1.19 0 0 1-.178.892 1.19 1.19 0 0 1-.328.328 1.17 1.17 0 0 1-.43.177 1.19 1.19 0 0 1-.892-.178 1.205 1.205 0 0 1-.328-.328c-1.2-1.814-1.89-2.688-3.156-4.01-2.454-2.564-7.113-3.332-10.34-1.505-3.406 1.93-5.163 5.95-4.302 9.86.86 3.904 4.12 6.744 8 6.976s7.42-2.194 8.72-5.965z"/><path d="M22.937 23.404l2.713 2.702a1.19 1.19 0 0 1 0 1.677 1.19 1.19 0 0 1-1.677.007l-3.064-3.05a1.19 1.19 0 0 1-.258-.386c-.06-.144-.09-.3-.09-.456v-6.1a1.19 1.19 0 0 1 1.188-1.188 1.19 1.19 0 0 1 1.188 1.188v5.608z"/></g><defs><filter id="A" x="10.132" y="10.239" width="29.709" height="28.607" filterUnits="userSpaceOnUse" color-interpolation-filters="sRGB"><feFlood flood-opacity="0" result="A"/><feColorMatrix in="SourceAlpha" values="0 0 0 0 0 0 0 0 0 0 0 0 0 0 0 0 0 0 127 0"/><feOffset dx="2" dy="2"/><feGaussianBlur stdDeviation="1.5"/><feColorMatrix values="0 0 0 0 0 0 0 0 0 0 0 0 0 0 0 0 0 0 0.0899004 0"/><feBlend in2="A"/><feBlend in="SourceGraphic"/></filter><linearGradient id="B" x1="39.531" y1="0" x2="5.761" y2="37.167" gradientUnits="userSpaceOnUse"><stop stop-color="#8dfb92"/><stop offset="1" stop-color="#07b20f" stop-opacity=".98"/></linearGradient></defs></svg>