<svg width="300" height="386" viewBox="0 0 300 386" fill="none" xmlns="http://www.w3.org/2000/svg">
<mask id="mask0" mask-type="alpha" maskUnits="userSpaceOnUse" x="0" y="0" width="300" height="374">
<rect width="299.75" height="373.022" rx="5" fill="#04093F"/>
</mask>
<g mask="url(#mask0)">
<g opacity="0.8">
<g opacity="0.7">
<g opacity="0.08">
<path opacity="0.08" fill-rule="evenodd" clip-rule="evenodd" d="M223.458 156.716L211.765 149.864L221.513 144.153L233.205 151.006L223.458 156.716Z" fill="#808080"/>
</g>
</g>
<path d="M201.794 46.1361L277.22 88.8725L343.74 49.8526L306.38 28.5427L295.501 22" stroke="white"/>
<path d="M268.374 -15.3024L268.374 -15.3023L202.504 21.8983C202.354 21.9832 202.325 22.0495 202.32 22.0667C202.325 22.0839 202.353 22.1505 202.503 22.2369L276.7 64.9968C276.7 64.9968 276.7 64.9968 276.7 64.9968C276.895 65.1092 277.184 65.1793 277.501 65.1778C277.818 65.1763 278.106 65.1034 278.3 64.9891L278.3 64.9889L343.117 26.7966L343.371 27.2274L343.117 26.7966C343.212 26.7408 343.26 26.6895 343.283 26.6571C343.293 26.6413 343.298 26.6304 343.3 26.6249C343.301 26.6197 343.301 26.6175 343.301 26.6173C343.301 26.6171 343.301 26.6149 343.299 26.6096C343.298 26.6041 343.293 26.5932 343.282 26.5775C343.259 26.5453 343.21 26.4947 343.115 26.4401L268.374 -15.3024ZM268.374 -15.3024C268.571 -15.4139 268.864 -15.4839 269.185 -15.4831C269.507 -15.4824 269.799 -15.411 269.997 -15.2986C269.997 -15.2985 269.997 -15.2985 269.997 -15.2985L343.114 26.4399L268.374 -15.3024ZM202.319 22.0623C202.319 22.0623 202.319 22.0627 202.319 22.0634L202.319 22.0623ZM202.319 22.0698C202.319 22.0707 202.319 22.0711 202.319 22.0711L202.319 22.0698Z" stroke="url(#paint0_linear)"/>
<path d="M277.55 88.8027V186.813L202.281 143.817V46.144L277.55 88.8027Z" stroke="url(#paint1_linear)"/>
<path d="M343.922 148.523L278.551 186.221V88.3227L343.922 49.6919V148.523Z" stroke="url(#paint2_linear)"/>
<path opacity="0.0508" fill-rule="evenodd" clip-rule="evenodd" d="M278.051 122.952L344.422 84.8602V81.7651L278.051 120.803V122.952Z" fill="url(#paint3_linear)"/>
<path opacity="0.0508" fill-rule="evenodd" clip-rule="evenodd" d="M278.051 143.546L344.422 105.45V102.359L278.051 141.397V143.546Z" fill="url(#paint4_linear)"/>
<path opacity="0.0508" fill-rule="evenodd" clip-rule="evenodd" d="M278.051 162.963L344.422 124.87V121.775L278.051 160.814V162.963Z" fill="url(#paint5_linear)"/>
<path d="M265.324 99.703V160.916L212.761 130.316V69.1026L265.324 99.703Z" stroke="url(#paint6_linear)"/>
<path d="M156.827 157.672L203.771 130.167L204.023 130.599L203.771 130.167C204.512 129.733 204.775 129.229 204.774 128.824C204.774 128.419 204.511 127.917 203.772 127.487L156.827 157.672ZM156.827 157.672C156.086 158.105 155.077 158.34 154.039 158.344C153.001 158.348 151.99 158.121 151.247 157.693L127.015 143.72C127.014 143.72 127.014 143.72 127.014 143.719C126.275 143.29 126.013 142.791 126.013 142.389C126.012 141.987 126.275 141.485 127.016 141.05L174.135 113.521C174.135 113.52 174.136 113.52 174.136 113.52C174.876 113.092 175.885 112.862 176.922 112.862C177.96 112.861 178.969 113.09 179.711 113.52L203.772 127.486L156.827 157.672Z" stroke="#37F499"/>
<path d="M165.103 141.78C170.89 141.78 175.582 139.014 175.582 135.602C175.582 132.19 170.89 129.425 165.103 129.425C159.315 129.425 154.623 132.19 154.623 135.602C154.623 139.014 159.315 141.78 165.103 141.78Z" fill="white"/>
<path fill-rule="evenodd" clip-rule="evenodd" d="M165.438 132.116L163.52 133.294C164.208 133.242 164.9 133.35 165.538 133.61L166.812 132.85L167.48 133.199L166.221 133.96C167.472 134.75 167.396 135.784 165.956 136.726C167.952 136.726 170.312 136.852 172.672 136.973L171.551 137.661C169.38 137.555 167.365 137.464 164.928 137.433L164.096 136.996L164.737 136.616C165.999 135.856 166.072 135.096 165.228 134.579L162.568 136.205L161.897 135.851L164.525 134.247C163.514 133.953 162.424 134.133 161.563 134.734L160.734 135.24L159.863 134.783L164.775 131.777L165.438 132.116Z" fill="#37F499"/>
<path d="M226.956 149.715C225.919 150.238 224.699 150.238 223.662 149.714L208.63 141.079C208.63 141.079 208.629 141.078 208.629 141.078C208.208 140.832 208.104 140.575 208.104 140.415C208.103 140.255 208.207 139.997 208.631 139.749C208.631 139.749 208.631 139.749 208.631 139.748L237.862 122.668C238.899 122.146 240.118 122.146 241.156 122.668L256.064 131.337L226.956 149.715ZM226.956 149.715L256.064 132.672C256.487 132.424 256.591 132.165 256.591 132.003C256.591 131.842 256.486 131.584 256.065 131.338L226.956 149.715Z" stroke="#37F499"/>
<path d="M232.929 140.015C236.627 140.015 239.624 138.303 239.624 136.191C239.624 134.079 236.627 132.366 232.929 132.366C229.231 132.366 226.233 134.079 226.233 136.191C226.233 138.303 229.231 140.015 232.929 140.015Z" fill="white"/>
<path fill-rule="evenodd" clip-rule="evenodd" d="M232.445 134.344L231.308 135.048C231.715 135.017 232.123 135.083 232.5 135.238L233.243 134.772L233.637 134.981L232.908 135.443C233.637 135.916 233.6 136.543 232.751 137.1C233.928 137.1 235.321 137.173 236.712 137.25L236.049 137.661C234.77 137.598 233.582 137.544 232.147 137.521L231.655 137.261L232.019 137.026C232.748 136.564 232.806 136.127 232.31 135.805L230.74 136.781L230.346 136.571L231.895 135.607C231.297 135.433 230.655 135.541 230.146 135.901L229.658 136.205L229.144 135.93L232.058 134.13L232.445 134.344Z" fill="#37F499"/>
<path d="M202.236 152.166L202.235 152.167L185.114 162.256C184.566 162.531 183.923 162.531 183.374 162.256L174.543 157.137C174.441 157.078 174.387 157.022 174.36 156.984C174.336 156.948 174.335 156.928 174.335 156.923C174.335 156.918 174.336 156.897 174.361 156.861C174.388 156.822 174.443 156.765 174.545 156.705L174.545 156.705L191.727 146.606C192.275 146.33 192.918 146.33 193.466 146.607L202.236 151.729C202.236 151.729 202.236 151.729 202.236 151.729C202.338 151.789 202.393 151.846 202.419 151.885C202.445 151.921 202.446 151.942 202.446 151.948C202.446 151.953 202.445 151.974 202.419 152.01C202.393 152.049 202.338 152.106 202.236 152.166Z" stroke="#37F499"/>
<path d="M188.101 156.49C190.19 156.49 191.885 155.436 191.885 154.137C191.885 152.837 190.19 151.783 188.101 151.783C186.011 151.783 184.316 152.837 184.316 154.137C184.316 155.436 186.011 156.49 188.101 156.49Z" fill="white"/>
<path fill-rule="evenodd" clip-rule="evenodd" d="M188.08 153.098L187.379 153.568C187.63 153.549 187.882 153.593 188.115 153.698L188.579 153.384L188.823 153.526L188.367 153.832C188.82 154.147 188.793 154.562 188.269 154.94C188.998 154.94 189.858 154.986 190.718 155.036L190.331 155.313C189.536 155.271 188.781 155.233 187.913 155.221L187.607 155.045L187.843 154.89C188.304 154.584 188.327 154.29 188.021 154.076L187.048 154.726L186.804 154.584L187.766 153.946C187.396 153.827 186.996 153.898 186.68 154.139L186.378 154.34L186.061 154.16L187.855 152.96L188.08 153.098Z" fill="#37F499"/>
<path d="M225.254 165.488L225.256 165.49C225.644 165.711 225.734 165.944 225.734 166.083C225.734 166.222 225.644 166.46 225.252 166.689C225.252 166.689 225.252 166.689 225.252 166.689L197.854 182.692C196.885 183.177 195.746 183.177 194.777 182.691L180.637 174.562L180.637 174.562L180.632 174.558C180.245 174.343 180.157 174.112 180.157 173.977C180.157 173.839 180.248 173.601 180.639 173.374L180.64 173.374L208.148 157.355C209.114 156.868 210.252 156.868 211.219 157.355L225.254 165.488Z" stroke="#37F499"/>
<path d="M202.654 174.142C206.031 174.142 208.768 172.43 208.768 170.318C208.768 168.205 206.031 166.493 202.654 166.493C199.278 166.493 196.541 168.205 196.541 170.318C196.541 172.43 199.278 174.142 202.654 174.142Z" fill="white"/>
<path fill-rule="evenodd" clip-rule="evenodd" d="M202.743 167.888L201.602 168.592C202.012 168.564 202.422 168.629 202.802 168.782L203.553 168.32L203.942 168.53L203.195 168.989C203.938 169.464 203.895 170.083 203.039 170.647C204.207 170.647 205.621 170.721 207.022 170.796L206.364 171.201C205.079 171.138 203.88 171.084 202.436 171.065L201.945 170.8L202.334 170.566C203.082 170.103 203.113 169.667 202.626 169.348L201.049 170.321L200.66 170.111L202.218 169.15C201.619 168.973 200.972 169.081 200.462 169.442L199.967 169.745L199.453 169.469L202.366 167.671L202.743 167.888Z" fill="#37F499"/>
<path d="M211.403 110.234L211.403 110.234L233.585 97.5167C234.338 97.1451 235.225 97.1451 235.979 97.517L247.296 103.974C247.296 103.974 247.296 103.974 247.297 103.974C247.598 104.146 247.635 104.304 247.635 104.358C247.635 104.413 247.597 104.571 247.295 104.746C247.295 104.746 247.295 104.746 247.294 104.746L225.2 117.455C224.447 117.827 223.56 117.827 222.807 117.454L211.402 110.998C211.402 110.998 211.402 110.998 211.401 110.998C211.102 110.828 211.066 110.671 211.065 110.617C211.065 110.564 211.101 110.407 211.403 110.234Z" stroke="#37F499"/>
<path d="M229.348 110.273C232.105 110.273 234.34 108.972 234.34 107.368C234.34 105.763 232.105 104.462 229.348 104.462C226.591 104.462 224.356 105.763 224.356 107.368C224.356 108.972 226.591 110.273 229.348 110.273Z" fill="white"/>
<path fill-rule="evenodd" clip-rule="evenodd" d="M229.232 105.818L228.346 106.362C228.664 106.336 228.983 106.387 229.277 106.508L229.863 106.133L230.17 106.295L229.591 106.651C230.166 107.026 230.132 107.492 229.469 107.927C230.389 107.927 231.475 107.983 232.561 108.043L232.047 108.358C231.044 108.31 230.117 108.269 228.993 108.253L228.614 108.051L228.909 107.871C229.492 107.514 229.526 107.176 229.137 106.933L227.91 107.683L227.604 107.518L228.811 106.767C228.346 106.632 227.844 106.715 227.448 106.992L227.07 107.225L226.669 107.015L228.939 105.63L229.232 105.818Z" fill="#37F499"/>
<path d="M295.599 20.7321C295.599 24.7024 292.809 28.3919 288.091 31.1166C283.386 33.8338 276.853 35.5304 269.609 35.5304C262.366 35.5304 255.833 33.8338 251.128 31.1166C246.41 28.3919 243.619 24.7024 243.619 20.7321C243.619 16.7618 246.41 13.0724 251.128 10.3476C255.833 7.63041 262.366 5.93384 269.609 5.93384C276.853 5.93384 283.386 7.63041 288.091 10.3476C292.809 13.0724 295.599 16.7618 295.599 20.7321Z" stroke="white"/>
<path fill-rule="evenodd" clip-rule="evenodd" d="M258.911 14.2598C260.216 14.8995 261.505 15.5697 262.805 16.2211L266.665 18.236C267.974 18.8599 269.251 19.5509 270.491 20.3047C271.099 20.6877 271.699 21.1133 272.281 21.5573C272.875 21.9946 273.44 22.4678 273.976 22.9746L273.914 23.0862C273.207 22.8746 272.515 22.6185 271.841 22.3202C271.164 22.0409 270.51 21.7189 269.863 21.3933C268.589 20.6919 267.351 19.9247 266.156 19.0947L262.48 16.7541C261.267 15.9539 260.043 15.1685 258.838 14.3561L258.911 14.2598Z" fill="#0071BC"/>
<path fill-rule="evenodd" clip-rule="evenodd" d="M276.887 16.7535C276.094 17.4098 275.283 18.0385 274.475 18.6679L273.251 19.615L272.016 20.5158C271.603 20.8146 271.208 21.1445 270.806 21.4635C270.405 21.7806 269.971 22.0489 269.512 22.263C268.563 22.7259 267.542 23.0046 266.499 23.0863L266.407 22.9192C266.997 22.0117 267.736 21.2226 268.59 20.5896C268.996 20.2804 269.434 20.0193 269.895 19.8132C270.356 19.6077 270.828 19.4247 271.281 19.1844L272.638 18.5087L274.014 17.8568C274.936 17.4335 275.858 17.0103 276.794 16.6145L276.887 16.7535Z" fill="#0071BC"/>
<path opacity="0.62" d="M257.383 14.6598C257.927 14.6598 258.368 14.2174 258.368 13.6718C258.368 13.1262 257.927 12.6838 257.383 12.6838C256.839 12.6838 256.397 13.1262 256.397 13.6718C256.397 14.2174 256.839 14.6598 257.383 14.6598Z" fill="url(#paint7_linear)"/>
<path opacity="0.62" d="M281.835 14.6598C282.379 14.6598 282.82 14.2174 282.82 13.6718C282.82 13.1262 282.379 12.6838 281.835 12.6838C281.291 12.6838 280.85 13.1262 280.85 13.6718C280.85 14.2174 281.291 14.6598 281.835 14.6598Z" fill="url(#paint8_linear)"/>
<path opacity="0.62" d="M257.383 28.7804C257.927 28.7804 258.368 28.3381 258.368 27.7924C258.368 27.2468 257.927 26.8044 257.383 26.8044C256.839 26.8044 256.397 27.2468 256.397 27.7924C256.397 28.3381 256.839 28.7804 257.383 28.7804Z" fill="url(#paint9_linear)"/>
<path opacity="0.62" d="M281.835 28.7804C282.379 28.7804 282.82 28.3381 282.82 27.7924C282.82 27.2468 282.379 26.8044 281.835 26.8044C281.291 26.8044 280.85 27.2468 280.85 27.7924C280.85 28.3381 281.291 28.7804 281.835 28.7804Z" fill="url(#paint10_linear)"/>
<path opacity="0.26" d="M262.915 11.9072L262.332 10.7292" stroke="url(#paint11_linear)" stroke-width="0.6716" stroke-linecap="round"/>
<path opacity="0.26" d="M269.319 11.3194L269.442 10.1414" stroke="url(#paint12_linear)" stroke-width="0.6716" stroke-linecap="round"/>
<path opacity="0.26" d="M276.887 12.4957L278.052 11.3184" stroke="url(#paint13_linear)" stroke-width="0.6716" stroke-linecap="round"/>
<path opacity="0.26" d="M284.456 24.8511L286.785 25.3097" stroke="url(#paint14_linear)" stroke-width="0.6716" stroke-linecap="round"/>
<path opacity="0.26" d="M285.038 20.8089L287.367 20.7327" stroke="url(#paint15_linear)" stroke-width="0.6716" stroke-linecap="round"/>
<path opacity="0.26" d="M283.292 16.6139L285.039 16.0254" stroke="url(#paint16_linear)" stroke-width="0.6716" stroke-linecap="round"/>
<path opacity="0.26" d="M255.928 16.4901L253.599 16.0254" stroke="url(#paint17_linear)" stroke-width="0.6716" stroke-linecap="round"/>
<path opacity="0.26" d="M256.509 24.2627L254.763 24.8512" stroke="url(#paint18_linear)" stroke-width="0.6716" stroke-linecap="round"/>
<path opacity="0.26" d="M276.887 28.3813L277.469 29.5587" stroke="url(#paint19_linear)" stroke-width="0.6716" stroke-linecap="round"/>
<path opacity="0.26" d="M270.029 28.9697L269.92 30.9109" stroke="url(#paint20_linear)" stroke-width="0.6716" stroke-linecap="round"/>
<path opacity="0.26" d="M262.914 28.3813L261.749 29.5587" stroke="url(#paint21_linear)" stroke-width="0.6716" stroke-linecap="round"/>
<path opacity="0.4" d="M244.24 115.474C244.24 115.474 244.24 115.474 244.24 115.474L265.097 103.432V119.803L259.047 123.303C258.23 123.71 257.27 123.709 256.454 123.302L244.24 116.37C244.24 116.37 244.239 116.369 244.239 116.369C243.913 116.181 243.86 116.001 243.86 115.922C243.86 115.844 243.912 115.664 244.24 115.474Z" stroke="#37F499"/>
</g>
</g>
<rect x="47" y="177" width="253" height="209" fill="url(#paint22_linear)"/>
<defs>
<linearGradient id="paint0_linear" x1="167.721" y1="14.1906" x2="337.945" y2="66.1745" gradientUnits="userSpaceOnUse">
<stop stop-color="#A4FCFF"/>
<stop offset="1" stop-color="#02BAFC"/>
</linearGradient>
<linearGradient id="paint1_linear" x1="180.192" y1="234.449" x2="314.304" y2="158.446" gradientUnits="userSpaceOnUse">
<stop stop-color="#300DB2"/>
<stop offset="1" stop-color="#00B8E9"/>
</linearGradient>
<linearGradient id="paint2_linear" x1="278.602" y1="286.532" x2="410.681" y2="129.806" gradientUnits="userSpaceOnUse">
<stop stop-color="#035DB3"/>
<stop offset="1" stop-color="#1FE6FF"/>
</linearGradient>
<linearGradient id="paint3_linear" x1="333.476" y1="63.9365" x2="318.934" y2="129.987" gradientUnits="userSpaceOnUse">
<stop stop-color="white" stop-opacity="0.2"/>
<stop offset="1" stop-color="#2E3192"/>
</linearGradient>
<linearGradient id="paint4_linear" x1="333.476" y1="84.519" x2="318.935" y2="150.576" gradientUnits="userSpaceOnUse">
<stop stop-color="white" stop-opacity="0.2"/>
<stop offset="1" stop-color="#2E3192"/>
</linearGradient>
<linearGradient id="paint5_linear" x1="333.476" y1="103.946" x2="318.934" y2="169.998" gradientUnits="userSpaceOnUse">
<stop stop-color="white" stop-opacity="0.2"/>
<stop offset="1" stop-color="#2E3192"/>
</linearGradient>
<linearGradient id="paint6_linear" x1="158.613" y1="37.6885" x2="426.43" y2="122.087" gradientUnits="userSpaceOnUse">
<stop stop-color="#300DB2"/>
<stop offset="1" stop-color="#00B8E9"/>
</linearGradient>
<linearGradient id="paint7_linear" x1="256.398" y1="13.6715" x2="258.373" y2="13.6715" gradientUnits="userSpaceOnUse">
<stop stop-color="#3AE4FF"/>
<stop offset="1" stop-color="#0DABFF"/>
</linearGradient>
<linearGradient id="paint8_linear" x1="280.85" y1="13.6715" x2="282.821" y2="13.6715" gradientUnits="userSpaceOnUse">
<stop stop-color="#3AE4FF"/>
<stop offset="1" stop-color="#0DABFF"/>
</linearGradient>
<linearGradient id="paint9_linear" x1="256.393" y1="27.7928" x2="258.369" y2="27.7928" gradientUnits="userSpaceOnUse">
<stop stop-color="#3AE4FF"/>
<stop offset="1" stop-color="#0DABFF"/>
</linearGradient>
<linearGradient id="paint10_linear" x1="280.85" y1="27.7928" x2="282.821" y2="27.7928" gradientUnits="userSpaceOnUse">
<stop stop-color="#3AE4FF"/>
<stop offset="1" stop-color="#0DABFF"/>
</linearGradient>
<linearGradient id="paint11_linear" x1="263.424" y1="13.1596" x2="262.317" y2="12.6613" gradientUnits="userSpaceOnUse">
<stop stop-color="white"/>
<stop offset="1" stop-color="#A9B3C2"/>
</linearGradient>
<linearGradient id="paint12_linear" x1="269.156" y1="12.1006" x2="269.107" y2="10.8115" gradientUnits="userSpaceOnUse">
<stop stop-color="white"/>
<stop offset="1" stop-color="#A9B3C2"/>
</linearGradient>
<linearGradient id="paint13_linear" x1="277.584" y1="11.7705" x2="278.88" y2="10.4611" gradientUnits="userSpaceOnUse">
<stop stop-color="white"/>
<stop offset="1" stop-color="#A9B3C2"/>
</linearGradient>
<linearGradient id="paint14_linear" x1="280.189" y1="24.2763" x2="280.499" y2="25.3161" gradientUnits="userSpaceOnUse">
<stop stop-color="white"/>
<stop offset="1" stop-color="#A9B3C2"/>
</linearGradient>
<linearGradient id="paint15_linear" x1="284.243" y1="20.835" x2="286.758" y2="21.0906" gradientUnits="userSpaceOnUse">
<stop stop-color="white"/>
<stop offset="1" stop-color="#A9B3C2"/>
</linearGradient>
<linearGradient id="paint16_linear" x1="279.865" y1="17.5942" x2="280.287" y2="16.4218" gradientUnits="userSpaceOnUse">
<stop stop-color="white"/>
<stop offset="1" stop-color="#A9B3C2"/>
</linearGradient>
<linearGradient id="paint17_linear" x1="251.223" y1="15.9471" x2="250.913" y2="14.8987" gradientUnits="userSpaceOnUse">
<stop stop-color="white"/>
<stop offset="1" stop-color="#A9B3C2"/>
</linearGradient>
<linearGradient id="paint18_linear" x1="250.674" y1="26.0401" x2="250.252" y2="27.2126" gradientUnits="userSpaceOnUse">
<stop stop-color="white"/>
<stop offset="1" stop-color="#A9B3C2"/>
</linearGradient>
<linearGradient id="paint19_linear" x1="275.464" y1="26.1807" x2="276.568" y2="26.6814" gradientUnits="userSpaceOnUse">
<stop stop-color="white"/>
<stop offset="1" stop-color="#A9B3C2"/>
</linearGradient>
<linearGradient id="paint20_linear" x1="269.961" y1="28.9458" x2="268.86" y2="29.6297" gradientUnits="userSpaceOnUse">
<stop stop-color="white"/>
<stop offset="1" stop-color="#A9B3C2"/>
</linearGradient>
<linearGradient id="paint21_linear" x1="263.388" y1="27.8586" x2="262.097" y2="29.1635" gradientUnits="userSpaceOnUse">
<stop stop-color="white"/>
<stop offset="1" stop-color="#A9B3C2"/>
</linearGradient>
<linearGradient id="paint22_linear" x1="173.5" y1="177" x2="173.5" y2="218.5" gradientUnits="userSpaceOnUse">
<stop stop-color="#04093F" stop-opacity="0"/>
<stop offset="1" stop-color="#04093F"/>
</linearGradient>
</defs>
</svg>
