<svg width="44" height="44" fill="none" xmlns="http://www.w3.org/2000/svg"><path d="M22 0a22 22 0 100 44 22 22 0 000-44z" fill="url(#paint0_linear)"/><path d="M14.4 21.22l3.17 1.53 2.81 1.35.5.23L17 32.37c-.25.52.38 1.03.84.67L29.7 23.7a.55.55 0 00-.1-.92l-3.37-1.62-2.6-1.26-.5-.23 3.86-8.04c.26-.52-.37-1.03-.83-.67L14.3 20.3a.54.54 0 00.09.92z" fill="#fff"/><defs><linearGradient id="paint0_linear" x1="21.68" y1="-3.83" x2="44" y2="49.1" gradientUnits="userSpaceOnUse"><stop stop-color="#3F75FF"/><stop offset="1" stop-color="#708FFF"/></linearGradient></defs></svg>