<svg width="44" height="44" fill="none" xmlns="http://www.w3.org/2000/svg"><circle cx="22" cy="22" r="22" fill="url(#paint0_linear)"/><path d="M18.5 14.275h12.75a2.975 2.975 0 012.975 2.975v4.25a2.975 2.975 0 01-2.975 2.975H18.5a2.975 2.975 0 01-2.975-2.975v-4.25a2.975 2.975 0 012.975-2.975z" stroke="#fff" stroke-width="2.55" stroke-linecap="round" stroke-linejoin="round"/><path d="M17.222 16.078a1.275 1.275 0 10-1.694-1.906l1.694 1.906zm17.006 8.495a1.275 1.275 0 10-1.706-1.896l1.706 1.896zm-22.802-5.05l-.847-.952.848.953zm4.102-5.35l-4.949 4.398 1.694 1.906 4.95-4.4-1.695-1.905zM8.725 22.7v3.05h2.55V22.7h-2.55zm5.525 8.575h10.41v-2.55H14.25v2.55zm14.107-1.418l5.87-5.284-1.705-1.896-5.871 5.284 1.706 1.896zm-3.696 1.418a5.525 5.525 0 003.696-1.418L26.65 27.96a2.975 2.975 0 01-1.99.764v2.55zM8.725 25.75a5.525 5.525 0 005.525 5.525v-2.55a2.975 2.975 0 01-2.975-2.975h-2.55zm1.854-7.18a5.525 5.525 0 00-1.854 4.13h2.55c0-.85.363-1.659.998-2.223L10.58 18.57z" fill="#fff"/><defs><linearGradient id="paint0_linear" x1="22" y1="0" x2="22" y2="44" gradientUnits="userSpaceOnUse"><stop stop-color="#F5A52D"/><stop offset="1" stop-color="#FFE68C"/></linearGradient></defs></svg>