<svg width="44" height="44" fill="none" xmlns="http://www.w3.org/2000/svg"><circle cx="22" cy="22" r="22" fill="#3924B9"/><path d="M17.741 26.264a3.985 3.985 0 01-3.98-3.98 3.985 3.985 0 013.98-3.98c.95 0 2.038.617 3.232 1.834.517.53.995 1.097 1.43 1.697l.316.449-.316.448c-.435.6-.913 1.167-1.43 1.698-1.194 1.217-2.282 1.834-3.232 1.834zm0-6.404a2.427 2.427 0 00-2.424 2.424 2.427 2.427 0 002.424 2.424c.826 0 2.17-1.3 3.055-2.424-.885-1.125-2.229-2.424-3.055-2.424z" fill="#fff"/><path d="M25.783 26.264c-.95 0-2.037-.617-3.231-1.835-.274-.28-.537-.57-.787-.872-.386-.46-.388-2.082-.007-2.54.222-.266.492-.572.794-.88 1.193-1.216 2.281-1.833 3.231-1.833a3.985 3.985 0 013.98 3.98 3.985 3.985 0 01-3.98 3.98zm-3.055-3.98c.886 1.124 2.23 2.425 3.055 2.425a2.428 2.428 0 002.425-2.425 2.428 2.428 0 00-2.425-2.424c-.828 0-2.172 1.299-3.055 2.423z" fill="#fff"/><path fill-rule="evenodd" clip-rule="evenodd" d="M27.665 10.17c-7.537-3.768-13.518.744-16.135 3.36a.75.75 0 11-1.06-1.06c2.717-2.717 9.402-7.872 17.865-3.64 7.48 3.739 7.76 11.135 7.408 13.77a.75.75 0 11-1.486-.2c.315-2.365.041-8.912-6.592-12.23zM15.676 33.696c7.595 3.599 13.455-1.042 16.006-3.716a.75.75 0 011.085 1.035c-2.648 2.776-9.2 8.08-17.733 4.036C7.494 31.478 7.05 24.09 7.342 21.45a.75.75 0 011.491.165c-.262 2.373.157 8.913 6.843 12.082z" fill="#fff"/><path d="M7.583 17.633a.5.5 0 01.834 0l2.536 3.842a.5.5 0 01-.418.775h-5.07a.5.5 0 01-.417-.775l2.535-3.843zm27.834 8.734a.5.5 0 01-.834 0l-2.535-3.842a.5.5 0 01.417-.775h5.07a.5.5 0 01.418.775l-2.536 3.843z" fill="#fff"/></svg>