<svg width="45" height="45" fill="none" xmlns="http://www.w3.org/2000/svg"><mask id="a" maskUnits="userSpaceOnUse" x="0" y="0" width="45" height="45"><path d="M22.5 45C10.074 45 0 34.926 0 22.5S10.074 0 22.5 0 45 10.074 45 22.5 34.926 45 22.5 45z" fill="#fff"/></mask><g mask="url(#a)"><path d="M22.5 44.798C10.185 44.798.202 34.815.202 22.5.202 10.185 10.185.202 22.5.202c12.315 0 22.298 9.983 22.298 22.298 0 12.315-9.983 22.298-22.298 22.298z" fill="url(#paint0_linear)" stroke="#00A3FF" stroke-width=".404"/></g><mask id="b" maskUnits="userSpaceOnUse" x="11" y="14" width="10" height="9"><path d="M11.97 14.803h4.765l3.922 5.15-2.487 2.953-6.2-8.103z" fill="#fff"/></mask><g mask="url(#b)"><g filter="url(#filter0_d)"><path d="M11.97 14.803h4.765l3.922 5.15-2.487 2.953-6.2-8.103z" fill="#000"/></g><path d="M11.97 14.803h4.765l3.922 5.15-2.487 2.953-6.2-8.103z" fill="#fff"/></g><mask id="c" maskUnits="userSpaceOnUse" x="11" y="9" width="22" height="22"><path d="M28.334 9.652h4.033l-16.06 21.339H11.97L28.334 9.652z" fill="#fff"/></mask><g mask="url(#c)"><g filter="url(#filter1_d)"><path d="M28.334 9.652h4.033l-16.06 21.339H11.97L28.334 9.652z" fill="#000"/></g><path d="M28.334 9.652h4.033l-16.06 21.339H11.97L28.334 9.652z" fill="#fff"/></g><mask id="d" maskUnits="userSpaceOnUse" x="19" y="20" width="15" height="17"><path d="M19.498 24.806l1.484-4.485 12.116 15.82H28.03l-8.532-11.335z" fill="#fff"/></mask><g mask="url(#d)"><g filter="url(#filter2_d)"><path d="M19.498 24.806l1.484-4.485 12.116 15.82H28.03l-8.532-11.335z" fill="#000"/></g><path d="M19.498 24.806l1.484-4.485 12.116 15.82H28.03l-8.532-11.335z" fill="#fff"/></g><path fill-rule="evenodd" clip-rule="evenodd" d="M16.734 14.685l3.88 5.12-2.425 3.1-6.333-8.22h4.878z" fill="#FC6D0B"/><defs><filter id="filter0_d" x="10.084" y="12.917" width="16.233" height="15.648" filterUnits="userSpaceOnUse" color-interpolation-filters="sRGB"><feFlood flood-opacity="0" result="BackgroundImageFix"/><feColorMatrix in="SourceAlpha" values="0 0 0 0 0 0 0 0 0 0 0 0 0 0 0 0 0 0 127 0"/><feOffset dx="1.886" dy="1.886"/><feGaussianBlur stdDeviation="1.886"/><feColorMatrix values="0 0 0 0 0.326952 0 0 0 0 0.372942 0 0 0 0 0.638659 0 0 0 0.414798 0"/><feBlend in2="BackgroundImageFix" result="effect1_dropShadow"/><feBlend in="SourceGraphic" in2="effect1_dropShadow" result="shape"/></filter><filter id="filter1_d" x="10.084" y="7.766" width="27.942" height="28.884" filterUnits="userSpaceOnUse" color-interpolation-filters="sRGB"><feFlood flood-opacity="0" result="BackgroundImageFix"/><feColorMatrix in="SourceAlpha" values="0 0 0 0 0 0 0 0 0 0 0 0 0 0 0 0 0 0 127 0"/><feOffset dx="1.886" dy="1.886"/><feGaussianBlur stdDeviation="1.886"/><feColorMatrix values="0 0 0 0 0.326952 0 0 0 0 0.372942 0 0 0 0 0.638659 0 0 0 0.414798 0"/><feBlend in2="BackgroundImageFix" result="effect1_dropShadow"/><feBlend in="SourceGraphic" in2="effect1_dropShadow" result="shape"/></filter><filter id="filter2_d" x="17.612" y="18.435" width="21.145" height="23.365" filterUnits="userSpaceOnUse" color-interpolation-filters="sRGB"><feFlood flood-opacity="0" result="BackgroundImageFix"/><feColorMatrix in="SourceAlpha" values="0 0 0 0 0 0 0 0 0 0 0 0 0 0 0 0 0 0 127 0"/><feOffset dx="1.886" dy="1.886"/><feGaussianBlur stdDeviation="1.886"/><feColorMatrix values="0 0 0 0 0.326952 0 0 0 0 0.372942 0 0 0 0 0.638659 0 0 0 0.414798 0"/><feBlend in2="BackgroundImageFix" result="effect1_dropShadow"/><feBlend in="SourceGraphic" in2="effect1_dropShadow" result="shape"/></filter><linearGradient id="paint0_linear" x1=".79" y1="54.025" x2="31.25" y2="5.586" gradientUnits="userSpaceOnUse"><stop stop-color="#171B2F"/><stop offset=".998" stop-color="#242B4D"/></linearGradient></defs></svg>